<?xml version="1.0" encoding="utf-8"?>
<!-- Generator: Adobe Illustrator 24.1.2, SVG Export Plug-In . SVG Version: 6.00 Build 0)  -->
<svg version="1.1" id="Layer_1" xmlns="http://www.w3.org/2000/svg" xmlns:xlink="http://www.w3.org/1999/xlink" x="0px" y="0px"
	 viewBox="0 0 363.62 363.62" style="enable-background:new 0 0 363.62 363.62;" xml:space="preserve">
<style type="text/css">
	.st0{fill:#1B75BB;}
	.st1{fill:#A4A392;}
	.st2{fill:#FFFFFF;}
	.st3{fill:url(#SVGID_1_);}
	.st4{fill:url(#SVGID_2_);}
	.st5{fill:url(#SVGID_3_);}
	.st6{fill:url(#SVGID_4_);}
	.st7{fill:url(#SVGID_5_);}
</style>
<circle class="st0" cx="181.25" cy="181.16" r="165.91"/>
<g>
	<g>
		<path class="st1" d="M238.71,232.76c0.48-0.23,0.99-0.27,1.21-0.8c0-0.03,0-0.07,0-0.1c-0.01-0.55-0.1-0.91-0.34-1.19
			c-0.63-0.74-1.04-1.61-1.51-2.44c-0.55-0.97-0.62-1.95-0.21-2.89c-0.18-0.71-0.35-1.34-0.5-1.96c-0.09,0.05-0.21,0.11-0.41,0.22
			c-0.11-0.22-0.22-0.41-0.3-0.61c-0.02-0.06,0.05-0.16,0.07-0.23c0.24,0.12,0.44,0.22,0.68,0.34c0.21-0.21,0.42-0.43,0.62-0.64
			c-0.08-0.26-0.16-0.5-0.24-0.76c-0.1,0-0.2,0-0.3,0l-0.03-0.03c-0.03-0.43-0.39-0.87,0.01-1.22c-0.31-0.44-0.57-0.82-0.84-1.19
			c0.08-0.66,0.07-1.28-0.36-1.79c0.34-0.12,0.62-0.2,0.88-0.33c0.07-0.04,0.07-0.23,0.1-0.36l0.03-0.03
			c0.57-0.84,0.55-1.1-0.21-1.81l-0.03-0.04c-0.2-0.54-0.27-1.08,0.05-1.57c-0.39-0.68-0.75-1.3-1.09-1.91
			c0.19-0.23,0.34-0.41,0.43-0.52c-0.57-1.25-1.09-2.4-1.66-3.65c0.26-1.09-0.3-2.05-0.76-2.93c-0.1-0.64,0.12-1.2-0.22-1.7
			c-0.04-0.06-0.03-0.22,0.02-0.29c0.43-0.67,0.02-1.12-0.37-1.6c-0.21-0.25-0.46-0.51-0.58-0.81c-0.4-0.97-0.77-1.95-1.12-2.94
			c-0.36-1.05-0.51-2.14-0.4-3.21c0.17-0.28,0.32-0.52,0.48-0.77c-0.41-0.46-0.75-0.84-1.08-1.23c0.07-0.24,0.14-0.49,0.2-0.72
			c-0.32-0.18-0.58-0.32-0.73-0.4c-0.17-0.39-0.3-0.68-0.46-1.06c-0.19,0.16-0.3,0.28-0.44,0.36s-0.3,0.12-0.46,0.18
			c-0.31-0.35-0.6-0.68-0.96-1.09c-0.07-0.24-0.19-0.61-0.31-0.99c-0.63,0.03-1.09-0.19-1.47-0.61c-0.67-0.74-1.24-1.56-1.75-2.42
			c-0.57-0.97-0.83-2.08-1.27-3.05c-0.5-0.25-0.94-0.46-1.38-0.68l-0.03-0.03c-0.26-0.53-0.52-1.06-0.77-1.57c0-0.36,0-0.69,0-1.05
			c0.34-0.2,0.67-0.4,1.14-0.68c-0.6-0.31-1.1-0.49-1.67-0.62c-0.3,0.33-0.59,0.66-0.89,1.01c-0.17-0.18-0.33-0.35-0.45-0.48
			c0-0.24,0-0.41,0-0.63c0.32-0.25,0.66-0.51,1.02-0.79c-0.01-0.15-0.02-0.31-0.03-0.42c-0.62,0.06-1.17,0.1-1.64,0.15
			c-0.75-0.56-0.62-1.46-1.16-2.19c-0.1,0.31-0.17,0.51-0.24,0.71l-0.02,0.02c-0.34-0.07-0.68-0.14-1.01-0.22
			c-0.14-0.14-0.27-0.27-0.41-0.41c-0.03-0.13-0.02-0.33-0.1-0.37c-0.83-0.46-1.5-1.12-2.15-1.79c-0.17-0.17-0.31-0.37-0.6-0.29
			l-0.03-0.03c0-0.1,0-0.2,0-0.34c-0.6-0.25-1.2-0.49-1.8-0.75c-0.33-0.15-0.65-0.32-0.94-0.53c-0.9-0.66-1.79-1.36-2.69-2.03
			c-0.07-0.05-0.19-0.01-0.3-0.02c-0.07-0.07-0.14-0.14-0.21-0.21c-0.01-0.1,0.03-0.24-0.02-0.29c-0.29-0.26-0.57-0.57-0.91-0.73
			c-0.47-0.22-0.7-0.8-1.29-0.81l-0.04-0.03c0.01-0.17,0-0.27-0.18-0.4c-1.2-0.86-2.01-1.95-1.85-3.53
			c-0.47-0.62-1.09-0.96-1.81-1.19c-0.53-0.17-1.05-0.43-1.5-0.75c-1.08-0.77-2.13-1.59-3.17-2.38c-0.35-0.78-0.49-1.67-1.3-2.16
			l-0.03-0.04c-0.05-0.15-0.07-0.33-0.15-0.45c-0.6-0.87-1.31-1.67-1.82-2.62c-0.47-0.88-0.6-1.8-0.67-2.76
			c-0.01-0.12,0.11-0.24,0.13-0.37c0.07-0.67,0.54-1.12,0.9-1.55c-0.06-0.68-0.53-0.99-0.86-1.41c-0.33-0.41-0.28-1.04-0.77-1.36
			c-0.01-0.01-0.02-0.02-0.04-0.03c-0.01-0.01-0.02-0.01-0.03-0.02l0,0c-0.08,0.02-0.14,0.03-0.2,0.05
			c-0.05,0.01-0.09,0.02-0.13,0.03c-0.08,0.02-0.13,0.03-0.13,0.03c-0.72-0.31-0.9-1-1.53-1.19l-0.04-0.03
			c-0.58-1.02-1.63-1.32-2.63-1.59c-0.84-0.22-1.4-0.64-1.88-1.31c-0.46-0.65-0.75-1.42-1.42-1.92c-0.17-0.13-0.26-0.38-0.37-0.58
			c-0.66-1.18-0.98-2.5-1.44-3.76c-0.15-0.42-0.28-0.75-0.66-1.02c-0.29-0.21-0.51-0.56-0.7-0.88c-0.47-0.8-0.9-1.61-1.33-2.39
			c0-0.35,0-0.65,0-0.98c0.44-0.27,0.89-0.54,1.36-0.83c0.15-0.22,0.32-0.46,0.46-0.68c0-0.65,0-1.26,0-1.87l0.03-0.03
			c0.15-0.05,0.37-0.05,0.44-0.16c0.29-0.4,0.53-0.83,0.78-1.23c-0.16-0.34-0.24-0.68-0.44-0.93c-0.25-0.31-0.23-0.66-0.16-0.97
			c0.28-1.21,0.62-2.41,0.84-3.64c0.12-0.66,0.43-1.4,1.34-1.55c0.38-0.06,0.71-0.34,1.08-0.53c0.43,0,0.87,0,1.39,0
			c0.27-0.33,0.62-0.66,0.86-1.06c0.42-0.72,0.83-1.45,1.11-2.22c0.17-0.46,0.43-0.81,0.82-1.21c-0.13-1.01-0.26-2.06-0.41-3.25
			c0.19-0.37,0.45-0.87,1.04-1.1c0.07-0.03,0.07-0.24,0.1-0.36l0.03-0.03c0.39-0.19,0.77-0.38,1.17-0.57c0.31,0,0.65,0,1.03,0
			c0.56,0.89,1.5,1.23,2.44,1.55c0.23-0.39,0.33-0.56,0.24-0.72c-0.32-0.58-0.15-1.18-0.19-1.8c0.27-0.42,0.54-0.85,0.82-1.25
			c0.28-0.41,0.84-0.65,0.82-1.36c-0.14-0.18-0.32-0.43-0.54-0.74c0-0.35,0.6-0.52,0.53-1.03l0.02-0.03
			c0.34,0.09,0.5-0.17,0.67-0.37c0.36-0.43,0.87-0.65,1.36-0.83c0.61-0.22,1.28-0.29,1.87-0.42c0.58,0.24,0.59,0.77,0.75,1.17
			c0.15,0.02,0.28,0.06,0.41,0.11c0.02-0.02,0.03-0.04,0.05-0.06c-0.03-0.11,0-0.24,0.14-0.41h0.45c0.01,0,0.02-0.01,0.03-0.01
			l-0.22-0.39l0.03-0.03c0.07,0,0.16,0.03,0.2,0c0.42-0.46,0.83-0.93,1.24-1.39c-0.37-0.33-0.7-0.63-1.13-1.02
			c0.45-0.03,0.77-0.05,1.09-0.07c0.34-0.55,0.65-1.06,0.96-1.57c0.73-0.44,1.53-0.22,2.39-0.22c-0.22,0.62-0.76,0.86-1.06,1.32
			c0,0.18,0,0.38,0,0.62c0.33,0.13,0.66,0.26,1,0.4c0.11,0.31,0.22,0.61,0.35,0.98c0.29,0.12,0.61,0.27,0.92,0.4
			c0.27-0.31,0.66-0.43,0.58-0.87l0.03-0.03c0.1-0.01,0.26,0.02,0.29-0.02c0.32-0.54,0.63-1.08,0.92-1.64
			c0.25-0.46,0.46-0.94,0.72-1.4c0.38-0.65,0.83-1.27,0.92-2.04c-0.21-0.41-0.42-0.82-0.63-1.23l0.03-0.03
			c0.6-0.21,0.36-0.82,0.59-1.21l0.02-0.02c0.12-0.01,0.25-0.02,0.39-0.04c0-0.6,0-1.14,0-1.75c1.17-0.14,1.79-0.99,2.38-1.87
			c0.39,0.01,0.82-0.17,1.11,0.36c0,0.32,0,0.69,0,1.06c-0.07,0.07-0.14,0.14-0.21,0.21c-0.1,0-0.21,0-0.33,0
			c-0.11,0.24-0.21,0.47-0.38,0.85c0.86-0.16,1.58-0.3,2.37-0.45c0.09-0.57,0.17-1.09,0.26-1.63c0.16-0.11,0.34-0.24,0.62-0.42
			c-0.77-1.02-1.53-2-2.33-3.05c0,0-0.1,0-0.2,0l-0.03-0.03c-0.09-0.13-0.19-0.26-0.29-0.41c-0.69,0.26-1.38,0.44-2.01,0.83
			c-0.35,0.22-0.79,0.35-1.2,0.4c-0.79,0.09-1.46-0.26-2.03-0.8c-0.18-0.17-0.4-0.3-0.54-0.41c-0.36,0.12-0.64,0.22-0.89,0.3
			c-0.18,0.25-0.34,0.47-0.52,0.73c-0.45-0.79-0.85-1.5-1.26-2.22c-0.27,0-0.56,0-0.87,0c0,0.15,0,0.25,0,0.35l-0.03,0.03
			c-0.26,0.21-0.53,0.2-0.79,0l-0.03-0.04c-0.16-0.48-0.43-0.95-0.72-1.04c-0.7-0.21-1.37-0.55-2.12-0.57l-0.02-0.03
			c0.01-0.17,0.02-0.34,0.03-0.45c0.19-0.39,0.73-0.53,0.55-1.14c-0.18-0.18-0.42-0.42-0.7-0.7c-0.39,0.09-0.77,0.17-1.2,0.27
			c-0.5-1.16-1.54-0.77-2.46-0.85c-0.21-0.2-0.44-0.41-0.6-0.56c-0.3-0.05-0.52-0.09-0.69-0.11c0.08-0.73,0.14-1.39,0.19-1.93
			c-0.28-0.53-0.65-0.93-0.37-1.41c0.25-0.43,0.09-0.76-0.08-1.13c-0.13-0.3-0.25-0.6-0.42-0.99c-0.23,0-0.59,0-0.97,0
			c-0.17-0.29-0.32-0.55-0.47-0.8c0.1-0.76-0.22-1.57,0.33-2.24c0.61-0.3,1.19-0.6,1.69-0.84c0.27,0.08,0.44,0.13,0.66,0.2
			c0-0.28,0.05-0.47-0.01-0.61c-0.17-0.38-0.29-0.7-0.05-1.13c0.21-0.37,0.46-0.64,0.83-0.81c0.04-0.23,0-0.54,0.13-0.67
			c0.57-0.54,0.33-1.01,0.06-1.37c-0.48-0.22-0.87-0.34-1.19-0.55c-0.31-0.21-0.56-0.52-0.84-0.8c-0.18,0.14-0.37,0.28-0.55,0.42
			L195,63.56c0-0.1,0-0.2,0-0.31c-0.69-0.33-1.37-0.66-2.03-0.98c-0.29,0.26-0.51,0.47-0.59,0.55c-0.51,0.17-0.85,0.26-1.18,0.4
			c-0.35,0.15-0.69,0.35-1.04,0.53c-0.31-0.36-0.48-0.86-1.07-0.78l-0.04-0.03c-0.25-0.7-0.72-1.24-1.43-1.4
			c-0.98-0.21-1.97-0.35-3.03-0.17c-0.29,0.56-0.68,1.07-1.46,1.09c-0.49-0.94-1.27-1.62-2.3-1.87c-0.51-0.12-0.77-0.51-1.18-0.75
			c-0.39,0-0.79,0-1.28,0c-0.14-0.68-0.27-1.34-0.4-1.96c-0.5-0.19-0.93-0.35-1.3-0.49c-0.41-0.89-1.12-1.3-1.94-1.59l-0.03-0.03
			c-0.07-0.17-0.1-0.4-0.23-0.51c-0.24-0.21-0.54-0.35-0.82-0.52c-0.52,0.05-0.82,0.36-0.98,0.82l-0.02,0.02c-0.1,0-0.2,0-0.37,0
			c-0.07,0.36,0.1,0.86-0.42,1c-0.22-0.08-0.43-0.15-0.54-0.19c-1.16,0.57-2.19,1.2-3.3,1.59c-0.9,0.31-1.47,0.84-1.95,1.59
			c-0.58,0.91-0.68,1.47-0.37,2.4c0.07,0.21,0.17,0.42,0.2,0.51c-0.19,0.64-0.68,0.38-1.04,0.54c-0.37,0.44-0.75,0.89-1.14,1.35
			c-0.89-0.18-0.89-0.18-1.4-0.01c-0.18-0.14-0.36-0.28-0.51-0.4c-0.53,0.42-0.96,0.85-1.48,1.15c-0.55,0.31-0.99,0.74-1.33,1.22
			c-0.2,0.28-0.42,0.34-0.58,0.46c-0.55-0.45-1.04-0.85-1.57-1.28c0.06-0.57,0.13-1.14,0.19-1.76c-0.62,0.3-1.12,0.63-1.68,0.78
			c-0.55,0.14-0.87,0.44-1.13,0.88l-0.03,0.03c-0.56,0.37-1.03,0.82-1.21,1.46c0.16,0.3,0.29,0.56,0.42,0.82
			c-0.63,0.63-0.74,1.41-0.82,2.2l-0.03,0.03c-0.16-0.01-0.33-0.03-0.55-0.04c-0.87-1.01-1.65-2.17-2.9-2.83l-0.03-0.03
			c0-0.1,0.03-0.24-0.02-0.29c-0.6-0.6-1.04-1.39-1.93-1.68c-0.26,0.13-0.55,0.27-0.97,0.49c-0.27,0.76-0.57,1.61-0.88,2.48
			c-0.42-0.37-0.82-0.79-1.11-1.33c-0.2-0.39-0.33-0.88-0.82-1.07c-0.07-0.07-0.14-0.14-0.21-0.21c0.05-0.12,0.1-0.23,0.14-0.32
			c-0.42-0.24-0.83-0.49-1.21-0.71c-0.17,0.3-0.32,0.55-0.46,0.81c-0.1,0.17-0.27,0.34-0.28,0.52c-0.01,0.78-0.4,1.3-1.07,1.65
			c-0.11,0.06-0.17,0.21-0.24,0.3c-0.14-0.07-0.22-0.12-0.28-0.15c-0.48,0.51-0.22,1.16-0.34,1.76c-0.15,0.08-0.28,0.17-0.43,0.23
			c-0.36,0.13-0.79,0.15-0.95,0.61l-0.04,0.03c-0.48,0.05-0.28,0.6-0.52,0.79c-0.26-0.07-0.47-0.12-0.68-0.18l-0.04-0.03
			c-0.15-0.2-0.3-0.4-0.37-0.48c-0.44-0.13-0.74-0.22-1.04-0.31l-0.03-0.03c-0.17-0.56-0.33-1.12-0.56-1.9
			c-0.09-0.1-0.3-0.37-0.75-0.37c-0.26,0-0.54-0.22-0.79-0.36c-0.63-0.35-1.21-0.76-1.97-0.87c-0.71-0.1-1.39-0.39-1.91-0.95
			c-0.25-0.28-0.59-0.41-0.95-0.47c-0.76,0.39-0.74,1.13-0.88,1.79c-0.21,0.22-0.41,0.44-0.59,0.64c0.11,0.21,0.18,0.35,0.28,0.54
			c-0.74,0.29-1.09,0.91-1.51,1.47c-0.43,0.58-0.72,1.23-0.89,1.93c-0.44-0.15-0.83-0.28-1.22-0.41c-0.21,0.19-0.39,0.35-0.55,0.49
			c0.02,0.25-0.02,0.48,0.07,0.65c0.25,0.5,0.5,1.02,0.84,1.46c0.51,0.67,0.86,1.5,1.75,1.8c0.12,0.04,0.18,0.22,0.3,0.27
			c0.49,0.23,0.83,0.69,1.35,0.85l0.03,0.03c0.23,0.4,0.46,0.8,0.63,1.1c0.39,0.24,0.69,0.42,0.97,0.58
			c-0.15,0.3-0.27,0.54-0.43,0.86c0.26,0.19,0.53,0.37,0.79,0.57c0.29,0.22,0.65,0.39,0.86,0.68c0.34,0.48,0.59,1.03,0.86,1.53
			c0.01,2.39,0.01,2.39,0.73,3.02c0.72,0.22,1.18-0.18,1.68-0.46c-0.07-0.11-0.11-0.2-0.17-0.28l0.03-0.03
			c0.12-0.03,0.33-0.03,0.35-0.1c0.11-0.27,0.2-0.56,0.23-0.85c0.03-0.27,0.02-0.53,0.4-0.64c0.05,0.49-0.09,1.03,0.42,1.42
			c0.36,0,0.76,0,1.19,0c0.16,0.27,0.31,0.52,0.45,0.74c0,0.41,0,0.78,0,1.04c-0.52,0.91-0.99,1.74-1.54,2.69c0.33,0,0.52,0,0.71,0
			l0.03,0.03c-0.01,0.06,0.01,0.15-0.03,0.2c-0.38,0.51-0.69,1.02-0.63,1.71c0.01,0.16-0.18,0.34-0.28,0.5
			c-0.16,0.03-0.32,0.06-0.47,0.09c-0.02,0.13-0.03,0.22-0.05,0.32c-0.15,0.16-0.3,0.31-0.45,0.47c0.45,0.41,0.8,0.02,1.13-0.02
			c0.57,0.34,0.25,0.88,0.39,1.3c0.27,0.52,0.54,1.04,0.77,1.58c0.09,0.23,0.24,0.19,0.4,0.18l0.04,0.03c0,0.1,0,0.2,0,0.35
			c0.27,0.03,0.52,0.06,0.6,0.07c0.69,0.34,0.86,0.88,1,1.38c0.32,1.14,1.05,1.86,2.14,2.22c0.87,0.29,1.8,0.35,2.6,0.86
			c0.17,0.11,0.47,0.01,0.61,0.01c0.33-0.19,0.57-0.34,0.83-0.5c0.55,0.64,1.13,1.04,1.86,1.26c0.41,0.12,0.77,0.36,1.08,0.52
			c0.15,0.31,0.28,0.56,0.36,0.74c0.53,0,0.93,0,1.34,0c-0.06-0.42-0.11-0.8-0.16-1.18l0.03-0.03c0.5,0.11,0.58-0.51,1.02-0.47
			c-0.1-0.33-0.17-0.57-0.22-0.74c0.57-0.42,1.08-0.8,1.55-1.14c0.6-0.14,1.17-0.31,1.75-0.4c0.68-0.1,0.99-0.6,1.3-1.16
			c0.94,0.45,2.07,0.27,2.8,1.11c0.27-0.11,0.48-0.19,0.64-0.26c0.43,0.25,0.54,0.62,0.68,1.01c0.13,0.36,0.4,0.68,0.55,0.92
			c0.7,0.43,1.38,0.74,1.91,1.21c0.58,0.52,1.21,0.94,1.88,1.23c0.25,0.75-0.21,1.24-0.54,1.76l-0.04,0.03
			c-0.26,0.11-0.53,0.22-0.92,0.39c-0.65-0.06-1.36,0.16-2.05,0.6c-0.12,0.3-0.23,0.6-0.34,0.88c0.33,0.22,0.61,0.41,0.76,0.51
			c1.12,0.11,2.12,0.22,3.1,0.32c0.13,0.25,0.24,0.49,0.38,0.75c0.22,0.07,0.47,0.14,0.72,0.22l0.02,0.02
			c-0.14,0.44-0.27,0.87-0.41,1.31c0.44,0.63,0.67,1.48,1.69,1.57c0.34-0.45,0.84-0.68,1.43-0.83c0.45,0.28,0.84,0.65,1.12,1.12
			c-0.06,0.13-0.11,0.25-0.11,0.25c0.32,0.4,0.57,0.72,0.74,0.92c0,0.56,0,0.96,0,1.41c-0.3-0.1-0.54-0.17-0.69-0.22
			c-0.67,0.49-1.26,0.94-1.92,1.42c0,0,0,0.1,0,0.2l-0.03,0.03c-0.13,0.01-0.25,0.02-0.51,0.05c0.43,0.56,0.78,1.03,1.15,1.51
			c-0.68,0.5-1.46,0.64-2.04,1.16c-0.6,0.54-0.66,1.36-1.11,1.97c-0.85,0-1.66,0-2.59,0c-0.33-0.38-0.71-0.82-1.12-1.29
			c-0.97-0.06-1.9-0.12-2.77-0.17c-0.38,0.24-0.69,0.44-1.09,0.7c-0.72-0.05-1.54-0.11-2.38-0.16c0.15,1.12,0.9,1.9,1.41,2.74
			c-0.2,0.49-0.38,0.91-0.54,1.28c-0.37,0.28-0.7,0.53-1.02,0.77c-0.09-0.05-0.15-0.08-0.25-0.13c-0.29,0.31-0.6,0.63-0.9,0.95
			c-0.3,0.33-0.88,0.38-0.99,1.02c0.99-0.01,1.39,0.97,2.31,1.31c0.22,0,0.55,0,0.93,0c0.33,0.26,0.63,0.67,1.02,0.77
			c0.92,0.25,1.65,0.83,2.47,1.26c0.7,0.36,1.31,0.85,1.77,1.47c0.21,0.29,0.43,0.46,0.8,0.6c0.35-0.4,0.75-0.23,1.15-0.02
			l0.03,0.03c0.38,1.02,1.04,1.77,2.07,2.17c0.62,0.24,1.24,0.48,1.68,1.03c0.11,0.14,0.35,0.18,0.56,0.28c0.62,0,1.26,0,1.92,0
			c0.22,0.21,0.44,0.41,0.68,0.63c0.34,0,0.67,0,0.98,0c0.22,0.21,0.42,0.4,0.64,0.61c0.4,0,0.8,0,1.18,0
			c0.33,0.39,0.63,0.74,0.97,1.14c-0.68,0.39-1.24,0.8-1.47,1.54c0,0.33-0.01,0.67,0,1.01c0.02,0.86,0.49,1.33,1.42,1.42l0.03,0.03
			c-0.05,0.36-0.1,0.71-0.16,1.18c0.59,0.49,1.26,1.05,1.91,1.59c0.11,0.36,0.23,0.72,0.28,0.89c0.61,0.29,1.05,0.49,1.48,0.7
			c0.21-0.36,0.37-0.64,0.52-0.89c0.75,0.22,0.62,0.95,0.94,1.36c0.16,0.09,0.31,0.15,0.44,0.25c0.85,0.64,1.4,1.45,1.33,2.56
			c-0.03,0.5,0.02,1.14,0.25,1.46c0.05,0.08,0.24,0.07,0.36,0.1l0.03,0.03c0.42,1.12,1.06,2.12,1.71,3.09c0.41,0,0.75,0,1.04,0
			c1.29,1.18,2,2.12,2.77,3.86c0.15,0.34,0.36,0.65,0.81,0.63c0.72,0.57,1.37,1.23,2.06,1.84c0.01,0.1-0.03,0.25,0.03,0.3
			c0.31,0.25,0.64,0.48,0.99,0.74c0.09-0.01,0.22-0.02,0.32-0.03c0.1-0.23,0.17-0.42,0.33-0.78c0.24,0.68,0.39,1.17,0.6,1.64
			c0.23,0.51,0.37,1.19,0.93,1.38c0.99,0.35,1.4,1.29,2.17,1.85c0.19,0.14,0.32,0.44,0.37,0.69c0.1,0.59,0.26,1.16,0.23,1.78
			c-0.05,0.92,0.01,1.84-0.02,2.76c-0.01,0.37,0.1,0.71,0.33,0.91c0.31,0.27,0.73,0.4,1.16,0.63c-0.08,0.37-0.17,0.75-0.26,1.11
			c0.63,0.72,1.05,1.6,2,1.94c0.12-0.55,0.31-1.08,0.78-1.32c0.35,0,0.62,0,0.79,0c0.21,0.56,0.39,1.05,0.54,1.46
			c0.44,0.29,0.8,0.52,1.16,0.76c0.05,0.2,0.1,0.38,0.15,0.6c1.05-0.09,1.92,0.33,2.69,0.68c-0.05,0.58-0.09,1.03-0.12,1.46
			c1.09,0.36,2.03,0.85,2.82,1.58c0.56,0.52,1.14,0.82,1.89,0.39c0.09-0.05,0.25-0.01,0.42-0.01c0.12,1.06-0.47,1.81-0.8,2.68
			c-1.51-0.17-2.47,0.5-3.07,1.81c0,0.28,0,0.58,0,0.89c0.45,0.59,0.86,1.18,0.85,2.05c0.22-0.09,0.36-0.15,0.51-0.21
			c0.63,0.49,0.76,1.3,1.2,1.96c0.26,0.13,0.56,0.28,0.94,0.48c0.25,0,0.58,0,0.91,0c0.54,1.24,0.58,1.28,1.77,1.53
			c0,0.28,0,0.58,0,0.63c0.42,0.83,1.32,0.45,1.68,1.16c-0.51,0.85-0.5,1.99-1.52,2.6c0,0.31,0,0.65,0,0.95
			c-0.58,0.13-1.13,0.25-1.55,0.35c-0.75,0.76-0.46,1.36,0.09,1.96c0.79,0.11,0.8,0.12,1.12,0.95c-0.23,0.17-0.51,0.35-0.74,0.56
			c-0.08,0.07-0.07,0.24-0.1,0.36l-0.02,0.02c-0.1,0-0.2,0-0.36,0c-0.12,0.96,0.51,1.75,0.58,2.62c-0.14,0.38-0.27,0.75-0.34,0.93
			c0.07,0.49,0.11,0.81,0.15,1.13l-0.03,0.03c-0.13,0.09-0.26,0.19-0.37,0.26c-0.02,0.41-0.04,0.77-0.07,1.21
			c-0.33,0.08-0.64,0.16-0.89,0.23c-0.26,0.43-0.5,0.82-0.76,1.26c0.45,0.57,0.24,1.1-0.11,1.63c-0.33,0.49-0.59,1.02-0.91,1.58
			c0.1,0.63,0.2,1.28,0.29,1.83c0.59,0.45,1.11,0.85,1.5,1.15c0.12,0.49,0.19,0.81,0.27,1.15c-0.31,0.43-0.12,0.95-0.19,1.47
			c0.21,0.23,0.41,0.47,0.63,0.72c0.13,0.14,0.27,0.28,0.41,0.41c0.01,0.1-0.02,0.24,0.03,0.3c0.56,0.67,0.85,1.22,0.99,1.93
			c0.08,0.42,0.13,0.85,0.21,1.27c0.38,1.77,0.27,3.59-0.58,5.03c-0.61,1.03-0.94,2.19-0.86,3.38c-0.16,0.3-0.29,0.57-0.4,0.79
			c-0.01,1.29,0.08,1.39,0.7,2.49c0.43,0.75,0.91,1.53,0.54,2.49c-0.07,0.19,0,0.47,0.04,0.7c0.04,0.29,0.13,0.58,0.15,0.87
			c0.03,0.51,0.01,1.02,0.01,1.53c-0.61,0.6-0.64,1.37-0.62,2.19c-0.42,0.18-0.81,0.35-1.14,0.49c-0.22,0.32-0.42,0.6-0.61,0.88
			c-0.37-0.65-0.86-1.12-1.51-1.38c-0.19,0.08-0.34,0.2-0.49,0.19c-1.1-0.07-1.72,0.78-2.53,1.28c-0.29,0.69-0.91,1.08-1.41,1.58
			c-0.37,0.38-0.8,0.72-1.24,1.02c-0.59,0.4-1.77,0.49-2.36,0.22c-0.23-0.11-0.43-0.28-0.7-0.46c-0.12,0.41-0.2,0.76-0.31,1.1
			c-0.11,0.34-0.26,0.67-0.39,1l-0.04,0.03c-0.57-0.03-1.12-0.16-1.71-0.04c-0.56,0.11-1.17-0.08-1.72,0.06
			c-0.56,0.14-1.14-0.3-1.66,0.1c0.22,0.58,0.44,1.16,0.65,1.72c-0.17,0.21-0.3,0.36-0.35,0.42c-0.04,0.33-0.07,0.57-0.09,0.8
			l-0.03,0.03c-0.14,0.11-0.29,0.23-0.41,0.33c0.16,0.38,0.3,0.69,0.46,1.05c-0.42-0.07-0.74-0.17-1.05-0.15s-0.61,0.15-0.96,0.25
			c-0.2-0.26-0.36-0.48-0.39-0.52c-0.63-0.21-1.05-0.34-1.5-0.49c-0.03,0.02-0.08,0.09-0.14,0.09c-0.71,0.01-1.24-0.56-2.01-0.59
			c-0.09,0.11-0.21,0.25-0.32,0.4l-0.03,0.03c-0.26,0.06-0.35,0.24-0.41,0.5c-0.09,0.37-0.25,0.73-0.37,1.05
			c-0.65,0.21-1.09-0.18-1.65-0.3c-0.33,0.27-0.7,0.56-1.03,0.83c0,0.34,0,0.61,0,0.86c0.36,0.21,0.7,0.41,0.98,0.57
			c-0.08,1.44-0.16,2.78-0.24,4.18c0.69,0.07,0.71,0.66,0.93,1c0.49,0.29,0.91,0.55,1.35,0.81c0.2,0.62,0.55,1.13,1.23,1.28
			c0.49,0.09,0.97,0.17,1.46,0.26l0.03,0.03c0.08,0.45,0.16,0.89,0.23,1.32c-0.34,0.27-0.59,0.47-0.85,0.67
			c0.26,0.82,0.91,1.53,0.74,2.57c-0.68-0.11-1.29-0.2-1.69-0.26c-0.94-0.44-1.24-1.32-2.03-1.67c-0.15,0.47-0.29,0.87-0.44,1.31
			c-0.26-0.09-0.47-0.17-0.68-0.24l-0.03-0.04c-0.1-0.79-0.48-1.47-0.81-2.17c-0.3-0.62-0.83-0.96-1.55-0.87
			c-0.11,0.24-0.19,0.41-0.27,0.58l-0.03-0.03c-0.4-0.11-0.72,0.12-1.02,0.31c-0.56,0.37-1.23,0.24-1.8,0.49
			c-0.56-0.34-1.18-0.16-1.75-0.2c-0.56,0.56-0.8,0.97-1.03,1.76c-1.25-0.73-2.74-0.81-4.09-1.45c-0.22,0.23-0.4,0.43-0.49,0.52
			c-0.17,0.79-0.04,1.41,0.23,1.99c0.16,0.34,0.18,0.62-0.03,0.94c-0.08,0.13-0.08,0.32-0.11,0.46c-0.08,0.03-0.14,0.05-0.2,0.07
			c-0.71,0.21-1.26,0.7-1.89,1.05c-0.07,0.04-0.07,0.23-0.1,0.36l-0.03,0.03c-0.18,0.15-0.38,0.27-0.52,0.44
			c-0.28,0.33-0.52,0.68-0.73,0.95c-1.29,0.1-2.44-0.08-3.56-0.39c-0.59,0.15-0.99,0.5-1.25,1.05c-0.16,0.32-0.42,0.6-0.67,0.87
			c-0.18,0.19-0.43,0.3-0.61,0.49c-0.1,0.1-0.12,0.28-0.18,0.41c0.12,0.12,0.21,0.22,0.3,0.32c0.1,1.09,0.31,1.4,1.27,1.9
			c0.31,0.74,0.43,1.61,1.38,1.98c0.09-0.71,0.53-1.09,1.1-1.36c0.33-0.16,0.6-0.16,0.93,0.07c0.47,0.33,0.83,0.77,1.11,1.23
			c0.26,0.44,0.62,0.61,1.05,0.63c0.47,0.02,0.83,0.18,1.18,0.46c0.12,0.09,0.3,0.1,0.45,0.15l0.03,0.03c0,0.1,0,0.2,0,0.29
			c0.28,0.15,0.54,0.28,0.78,0.41c0,0.23,0,0.43,0,0.53c-1.34,1.04-2.89,1.71-3.55,3.04c-0.13,0.76-0.26,1.28-0.32,1.81
			c-0.09,0.93-0.14,1.87-0.21,2.8c-0.01,0.1,0.03,0.22-0.01,0.3c-0.46,1.01-0.13,2.11-0.36,3.17c-0.29,1.33,0.18,2.76-0.25,4.13
			c-0.02,0.06-0.01,0.15,0.02,0.19c0.37,0.53,0.25,1.16,0.14,1.68c-0.14,0.61-0.14,1.19-0.16,1.81c0.27,0.28,0.55,0.58,0.84,0.88
			c-0.27,0.44-0.52,0.86-0.78,1.28c-0.46,0.01-0.95-0.06-1.31,0.42c0.29,0.49,0.73,0.82,1.26,1.03c0.37,0,0.73-0.01,1.1-0.01
			c0.39-0.01,0.78,0,1.17,0.02c0.7,0.04,1.3-0.21,1.92-0.45c0.28-0.11,0.54-0.26,0.8-0.39c0.56-0.27,1.03-0.66,1.33-1.19
			c0.2-0.34,0.44-0.56,0.79-0.72c0.33-0.15,0.63-0.38,0.97-0.5c0.55-0.22,0.9-0.64,1.06-1.15c0.37-1.23,1.09-2.26,1.76-3.31
			c0.32-0.51,0.82-0.81,1.48-0.93c1.06-0.2,2.11-0.51,3.07-1.03c1.51-0.82,3.06-1.55,4.7-2.05c0.5-0.15,0.96-0.49,1.47-0.56
			c0.44-0.06,0.67-0.28,0.92-0.59c-0.05-0.59,0-1.19,0.4-1.63c0-0.44,0-0.81,0-1.17c-0.35-0.45-0.38-1.11-1-1.34l-0.03-0.03
			c-0.03-0.5-0.45-0.79-0.67-1.19c-0.1-0.19-0.18-0.4-0.36-0.8c1.32,0.96,2.44,1.78,3.68,2.43c0.26,0.14,0.44,0.42,0.64,0.64
			c0.18,0.2,0.36,0.4,0.54,0.61c1.19-0.08,2.13-0.71,3.1-1.13c0.1-0.25,0.15-0.46,0.27-0.61c0.38-0.47,0.23-0.99-0.09-1.28
			c-0.73-0.67-0.91-1.61-1.36-2.4c-0.09-0.15-0.14-0.33-0.27-0.65c0.77,0.63,1.38,1.15,2.01,1.67c0.35-0.13,0.72-0.28,1.1-0.43
			c-0.09-0.15-0.14-0.24-0.19-0.32l0.03-0.04c0.12-0.01,0.24-0.02,0.39-0.03c0-0.26,0.06-0.47-0.01-0.65
			c-0.15-0.4-0.15-0.97-0.81-0.93c-0.07-0.07-0.14-0.14-0.21-0.21c0.23-0.42,0.49-0.17,0.71-0.06c0.29-0.68,0.55-1.39,0.9-2.05
			c0.35-0.67,0.16-1.56,0.93-2.03c-0.14-0.3-0.25-0.53-0.35-0.76c-0.12-0.01-0.22-0.02-0.32-0.02c0-0.18-0.04-0.38,0.25-0.42
			c0.06-0.01,0.11-0.13,0.17-0.19c0.13-0.09,0.26-0.19,0.43-0.31c0-0.37,0-0.73,0-1.02c0.3-0.42,0.62-0.34,0.94-0.26
			c0.05,0.21,0.11,0.38,0.16,0.58c0.63-0.27,1.19-0.5,1.75-0.74c-0.13-0.38-0.25-0.72-0.38-1.1c0.54-0.1,1.09-0.2,1.53-0.29
			c0.57,0.3,1.02,0.53,1.42,0.74c-0.04,0.21-0.08,0.37-0.1,0.53l-0.03,0.03c-0.03,0-0.07-0.02-0.1-0.01
			c-0.58,0.27-0.64,0.95-1.09,1.33c0,0,0.04,0.05,0.09,0.13c0.06,0.04,0.16,0.12,0.25,0.19c0.59-0.38,1.14-0.73,1.61-1.03
			c1.26-0.01,1.26-0.01,1.83-0.35c-0.04-0.09-0.08-0.18-0.12-0.27c0.07-0.07,0.14-0.14,0.21-0.21c0.25-0.07,0.5-0.14,0.76-0.21
			c0.92-0.23,1.84-0.46,2.71-0.82c0.28-0.12,0.47-0.26,0.4-0.6l0.03-0.03c0.17,0,0.28,0,0.41-0.18c0.53-0.75,1.19-1.17,1.99-1.22
			c0.42-0.03,0.76-0.2,1.12-0.35c0.62-0.24,1.07-0.68,1.56-1.15c0.78,0.09,1.57,0.19,2.37,0.29c0.45-1.14,0.48-2.37,1.15-3.5
			c0.33-0.07,0.71-0.13,1.09-0.23c0.41-0.11,0.81-0.26,1.23-0.4c0.26,0.2,0.53,0.4,0.81,0.62c0.22-0.25,0.61-0.38,0.53-0.81
			l0.03-0.04c0.48,0.11,0.54-0.38,0.79-0.59c0.57-0.47,1.11-0.94,1.92-0.84c0.02,0.01,0.06-0.08,0.08-0.11
			c-0.06-0.1-0.11-0.19-0.16-0.27l0.03-0.03c0.26-0.06,0.33-0.26,0.41-0.49c0.1-0.26,0.3-0.53,0.53-0.69
			c0.28-0.19,0.64-0.28,0.98-0.42c0.09,0.06,0.2,0.13,0.33,0.21c0.22-0.17,0.43-0.32,0.64-0.48c0.22,0.09,0.4,0.17,0.57,0.24
			l0.02,0.02c0.05,0.07,0.1,0.14,0.2,0.29c0.51-0.48,0.57-1.06,0.65-1.61c0.24-0.3,0.47-0.59,0.75-0.94
			c0.44-0.08,0.96-0.17,1.48-0.26c0.32,0.34,0.64,0.59,1.11,0.44c0.7-0.49,1.05-1.18,0.92-2.07c-0.13-0.87,0.28-1.61,0.5-2.4
			c0.45,0.08,0.86,0.16,1.21,0.22c0.69-0.68,0.68-0.68,1.01-1.58c0.14-0.36,0.33-0.71,0.56-1.21c0-0.13,0-0.44,0-0.77
			c-0.14-0.17-0.28-0.35-0.42-0.53c0-0.37,0-0.71,0-1.05c-0.25,0.1-0.5,0.2-0.75,0.3c-0.04-0.56-0.04-0.56,0.39-0.95
			c0.13,0.22,0.25,0.43,0.38,0.63c0.29,0.23,0.45,0.64,0.97,0.59c0-0.76,0-1.53,0-2.24c-0.28-0.67-0.55-1.3-0.83-1.96
			c0.23-0.39,0.45-0.75,0.66-1.09c0-0.26,0-0.49,0-0.71c-0.22-0.24-0.42-0.47-0.57-0.64c-0.14-0.58,0.38-0.61,0.58-0.88
			c-0.06-0.2-0.12-0.39-0.2-0.7c0.4,0.1,0.68,0.17,0.99,0.24c0.12-0.21,0.21-0.42,0.36-0.59c0.14-0.16,0.35-0.26,0.6-0.44
			c-0.31-0.47-0.6-0.89-0.87-1.3c0.07-0.14,0.12-0.26,0.21-0.43c-0.78-0.22-1-0.84-1.14-1.51c-0.13,0-0.23,0-0.33,0l-0.03-0.03
			c0.2-1.08,0.86-1.76,1.82-2.21c0.1,0.15,0.16,0.22,0.16,0.23c-0.12,0.36-0.22,0.67-0.32,0.98c-0.07,0.07-0.14,0.14-0.21,0.21
			c-0.14,0.03-0.28,0.06-0.57,0.13c0.75,0.64,1.46,1.02,2.24,1.29c0.19-0.11,0.39-0.22,0.58-0.32c0-0.4,0-0.77,0-1.15
			C239.33,234.73,238.63,233.92,238.71,232.76z"/>
		<path class="st1" d="M231.45,269.81c-0.1-0.03-0.2-0.06-0.43-0.14c0.28,0.54,0.55,0.86,1.07,1.05c0-0.46,0-0.84,0-1.25
			c-0.19,0-0.31,0-0.46,0C231.57,269.58,231.51,269.69,231.45,269.81z"/>
		<path class="st1" d="M212.85,95.11c-0.25,0.36-0.43,0.63-0.59,0.86c0,0.28,0,0.51,0,0.82c0.79,0.16,1.25-0.32,1.83-0.62
			c-0.02-0.26-0.04-0.51-0.06-0.82c-0.36,0.16-0.63,0.28-0.86,0.39C213.06,95.5,212.97,95.33,212.85,95.11z"/>
		<path class="st1" d="M193.67,300.6c0.55,0.09,0.87-0.35,1.33-0.47c-0.09-0.15-0.14-0.23-0.19-0.32l0.03-0.04
			c0.6-0.06,0.54-0.51,0.61-0.97c-0.36,0-0.65,0-0.88,0C193.83,299.21,193.38,299.72,193.67,300.6z"/>
		<path class="st1" d="M191.28,144.86L191.28,144.86L191.28,144.86C191.28,144.86,191.28,144.87,191.28,144.86
			c0.02,0.01,0.02,0.01,0.03,0C191.3,144.86,191.29,144.86,191.28,144.86z"/>
		<path class="st1" d="M152.79,271.29c-0.85-0.03-0.76,1.08-1.53,1.24c-0.37-0.1-0.8-0.38-1.36-0.11c0.31,0.87,0.8,1.54,1.48,2.1
			c0.22,0.18,0.42,0.46,0.51,0.73c0.2,0.66,0.39,1.33,0.46,2.01c0.06,0.56,0.34,0.96,0.62,1.55c0.62-0.9,0.71-1.76,0.64-2.47
			c0.33-0.89,0.59-1.59,0.83-2.25C154.17,272.96,153.84,271.92,152.79,271.29z"/>
	</g>
	<g>
		<path class="st2" d="M239.91,232.76c0.48-0.23,0.99-0.27,1.21-0.8c0-0.03,0-0.07,0-0.1c-0.01-0.55-0.1-0.91-0.34-1.19
			c-0.63-0.74-1.04-1.61-1.51-2.44c-0.55-0.97-0.62-1.95-0.21-2.89c-0.18-0.71-0.35-1.34-0.5-1.96c-0.09,0.05-0.21,0.11-0.41,0.22
			c-0.11-0.22-0.22-0.41-0.3-0.61c-0.02-0.06,0.05-0.16,0.07-0.23c0.24,0.12,0.44,0.22,0.68,0.34c0.21-0.21,0.42-0.43,0.62-0.64
			c-0.08-0.26-0.16-0.5-0.24-0.76c-0.1,0-0.2,0-0.3,0l-0.03-0.03c-0.03-0.43-0.39-0.87,0.01-1.22c-0.31-0.44-0.57-0.82-0.84-1.19
			c0.08-0.66,0.07-1.28-0.36-1.79c0.34-0.12,0.62-0.2,0.88-0.33c0.07-0.04,0.07-0.23,0.1-0.36l0.03-0.03
			c0.57-0.84,0.55-1.1-0.21-1.81l-0.03-0.04c-0.2-0.54-0.27-1.08,0.05-1.57c-0.39-0.68-0.75-1.3-1.09-1.91
			c0.19-0.23,0.34-0.41,0.43-0.52c-0.57-1.25-1.09-2.4-1.66-3.65c0.26-1.09-0.31-2.05-0.76-2.93c-0.1-0.64,0.12-1.2-0.22-1.7
			c-0.04-0.06-0.03-0.22,0.02-0.29c0.43-0.67,0.02-1.12-0.37-1.6c-0.21-0.25-0.46-0.51-0.58-0.81c-0.4-0.97-0.77-1.95-1.12-2.94
			c-0.36-1.05-0.51-2.14-0.4-3.21c0.17-0.28,0.32-0.52,0.48-0.77c-0.41-0.46-0.75-0.84-1.08-1.23c0.07-0.24,0.14-0.49,0.2-0.72
			c-0.32-0.18-0.58-0.32-0.73-0.4c-0.17-0.39-0.3-0.68-0.46-1.06c-0.19,0.16-0.3,0.28-0.44,0.36s-0.3,0.12-0.46,0.18
			c-0.31-0.35-0.6-0.68-0.96-1.09c-0.07-0.24-0.19-0.61-0.31-0.99c-0.63,0.03-1.09-0.19-1.47-0.61c-0.67-0.74-1.24-1.56-1.75-2.42
			c-0.57-0.97-0.83-2.08-1.27-3.05c-0.5-0.25-0.94-0.46-1.38-0.68l-0.03-0.03c-0.26-0.53-0.52-1.06-0.77-1.57c0-0.36,0-0.69,0-1.05
			c0.34-0.2,0.67-0.4,1.14-0.68c-0.6-0.31-1.1-0.49-1.67-0.62c-0.3,0.33-0.59,0.66-0.89,1.01c-0.17-0.18-0.33-0.35-0.45-0.48
			c0-0.24,0-0.41,0-0.63c0.32-0.25,0.66-0.51,1.02-0.79c-0.01-0.15-0.02-0.31-0.03-0.42c-0.62,0.06-1.17,0.1-1.64,0.15
			c-0.75-0.56-0.62-1.46-1.16-2.19c-0.1,0.31-0.17,0.51-0.24,0.71l-0.02,0.02c-0.34-0.07-0.68-0.14-1.01-0.22
			c-0.14-0.14-0.27-0.27-0.41-0.41c-0.03-0.13-0.02-0.33-0.1-0.37c-0.83-0.46-1.5-1.12-2.15-1.79c-0.17-0.17-0.31-0.37-0.6-0.29
			l-0.03-0.03c0-0.1,0-0.2,0-0.34c-0.6-0.25-1.2-0.49-1.8-0.75c-0.33-0.15-0.65-0.32-0.94-0.53c-0.9-0.66-1.79-1.36-2.69-2.03
			c-0.07-0.05-0.19-0.01-0.3-0.02c-0.07-0.07-0.14-0.14-0.21-0.21c-0.01-0.1,0.03-0.24-0.02-0.29c-0.29-0.26-0.57-0.57-0.91-0.73
			c-0.47-0.22-0.7-0.8-1.29-0.81l-0.04-0.03c0.01-0.17,0-0.27-0.18-0.4c-1.2-0.86-2.01-1.95-1.85-3.53
			c-0.47-0.62-1.09-0.96-1.81-1.19c-0.53-0.17-1.05-0.43-1.5-0.75c-1.08-0.77-2.13-1.59-3.17-2.38c-0.35-0.78-0.49-1.67-1.3-2.16
			l-0.03-0.04c-0.05-0.15-0.07-0.33-0.15-0.45c-0.6-0.87-1.31-1.67-1.82-2.62c-0.47-0.88-0.6-1.8-0.67-2.76
			c-0.01-0.12,0.11-0.24,0.13-0.37c0.07-0.67,0.54-1.12,0.9-1.55c-0.06-0.68-0.53-0.99-0.86-1.41c-0.33-0.41-0.28-1.04-0.77-1.36
			c-0.01-0.01-0.02-0.02-0.04-0.03c-0.01-0.01-0.02-0.01-0.03-0.02l0,0c-0.08,0.02-0.14,0.03-0.2,0.05
			c-0.05,0.01-0.09,0.02-0.13,0.03c-0.08,0.02-0.13,0.03-0.13,0.03c-0.72-0.31-0.9-1-1.53-1.19l-0.04-0.03
			c-0.58-1.02-1.63-1.32-2.63-1.59c-0.84-0.22-1.4-0.64-1.88-1.31c-0.46-0.65-0.75-1.42-1.42-1.92c-0.17-0.13-0.26-0.38-0.37-0.58
			c-0.66-1.18-0.98-2.5-1.44-3.76c-0.15-0.42-0.28-0.75-0.66-1.02c-0.29-0.21-0.51-0.56-0.7-0.88c-0.47-0.8-0.9-1.61-1.33-2.39
			c0-0.35,0-0.65,0-0.98c0.44-0.27,0.89-0.54,1.36-0.83c0.15-0.22,0.32-0.46,0.46-0.68c0-0.65,0-1.26,0-1.87l0.03-0.03
			c0.15-0.05,0.37-0.05,0.44-0.16c0.29-0.4,0.53-0.83,0.78-1.23c-0.16-0.34-0.24-0.68-0.44-0.93c-0.25-0.31-0.23-0.66-0.16-0.97
			c0.28-1.21,0.62-2.41,0.84-3.64c0.12-0.66,0.43-1.4,1.34-1.55c0.38-0.06,0.71-0.34,1.08-0.53c0.43,0,0.87,0,1.39,0
			c0.27-0.33,0.62-0.66,0.86-1.06c0.42-0.72,0.83-1.45,1.11-2.22c0.17-0.46,0.43-0.81,0.82-1.21c-0.13-1.01-0.26-2.06-0.41-3.25
			c0.19-0.37,0.45-0.87,1.04-1.1c0.07-0.03,0.07-0.24,0.1-0.36l0.03-0.03c0.39-0.19,0.77-0.38,1.17-0.57c0.31,0,0.65,0,1.03,0
			c0.56,0.89,1.5,1.23,2.44,1.55c0.23-0.39,0.33-0.56,0.24-0.72c-0.32-0.58-0.15-1.18-0.19-1.8c0.27-0.42,0.54-0.85,0.82-1.25
			c0.28-0.41,0.84-0.65,0.82-1.36c-0.14-0.18-0.32-0.43-0.54-0.74c0-0.35,0.6-0.52,0.53-1.03l0.02-0.03
			c0.34,0.09,0.5-0.17,0.67-0.37c0.36-0.43,0.87-0.65,1.36-0.83c0.61-0.22,1.28-0.29,1.87-0.42c0.58,0.24,0.59,0.77,0.75,1.17
			c0.15,0.02,0.28,0.06,0.41,0.11c0.02-0.02,0.03-0.04,0.05-0.06c-0.03-0.11,0-0.24,0.14-0.41h0.45c0.01,0,0.02-0.01,0.02-0.01
			l-0.22-0.39l0.03-0.03c0.07,0,0.16,0.03,0.2,0c0.42-0.46,0.83-0.93,1.24-1.39c-0.37-0.33-0.7-0.63-1.13-1.02
			c0.45-0.03,0.77-0.05,1.09-0.07c0.34-0.55,0.65-1.06,0.96-1.57c0.73-0.44,1.53-0.22,2.39-0.22c-0.22,0.62-0.76,0.86-1.06,1.32
			c0,0.18,0,0.38,0,0.62c0.33,0.13,0.66,0.26,1,0.4c0.11,0.31,0.22,0.61,0.35,0.98c0.29,0.12,0.61,0.27,0.92,0.4
			c0.27-0.31,0.66-0.43,0.58-0.87l0.03-0.03c0.1-0.01,0.26,0.02,0.29-0.02c0.32-0.54,0.63-1.08,0.92-1.64
			c0.25-0.46,0.46-0.94,0.72-1.4c0.38-0.65,0.83-1.27,0.92-2.04c-0.21-0.41-0.42-0.82-0.63-1.23l0.03-0.03
			c0.6-0.21,0.36-0.82,0.59-1.21l0.02-0.02c0.12-0.01,0.25-0.02,0.39-0.04c0-0.6,0-1.14,0-1.75c1.17-0.14,1.79-0.99,2.38-1.87
			c0.39,0.01,0.82-0.17,1.11,0.36c0,0.32,0,0.69,0,1.06c-0.07,0.07-0.14,0.14-0.21,0.21c-0.1,0-0.21,0-0.33,0
			c-0.11,0.24-0.21,0.47-0.38,0.85c0.86-0.16,1.58-0.3,2.37-0.45c0.09-0.57,0.17-1.09,0.26-1.63c0.16-0.11,0.34-0.24,0.62-0.42
			c-0.77-1.02-1.53-2-2.33-3.05c0,0-0.1,0-0.2,0l-0.03-0.03c-0.09-0.13-0.19-0.26-0.29-0.41c-0.69,0.26-1.38,0.44-2.01,0.83
			c-0.35,0.22-0.79,0.35-1.2,0.4c-0.79,0.09-1.46-0.26-2.03-0.8c-0.18-0.17-0.4-0.3-0.54-0.41c-0.36,0.12-0.64,0.22-0.89,0.3
			c-0.18,0.25-0.34,0.47-0.52,0.73c-0.45-0.79-0.85-1.5-1.26-2.22c-0.27,0-0.56,0-0.87,0c0,0.15,0,0.25,0,0.35l-0.02,0.07
			c-0.26,0.21-0.53,0.2-0.79,0l-0.03-0.04c-0.16-0.48-0.43-0.95-0.72-1.04c-0.7-0.21-1.37-0.55-2.12-0.57l-0.02-0.03
			c0.01-0.17,0.02-0.34,0.03-0.45c0.19-0.39,0.73-0.53,0.55-1.14c-0.18-0.18-0.42-0.42-0.7-0.7c-0.39,0.09-0.77,0.17-1.2,0.27
			c-0.5-1.16-1.54-0.77-2.45-0.85c-0.21-0.2-0.44-0.41-0.6-0.56c-0.3-0.05-0.52-0.09-0.69-0.11c0.08-0.73,0.14-1.39,0.19-1.93
			c-0.28-0.53-0.65-0.93-0.37-1.41c0.25-0.43,0.09-0.76-0.08-1.13c-0.13-0.3-0.25-0.6-0.42-0.99c-0.23,0-0.59,0-0.97,0
			c-0.17-0.29-0.32-0.55-0.47-0.8c0.1-0.76-0.22-1.57,0.33-2.24c0.61-0.3,1.19-0.6,1.69-0.84c0.27,0.08,0.44,0.13,0.66,0.2
			c0-0.28,0.05-0.47-0.01-0.61c-0.17-0.38-0.29-0.7-0.05-1.13c0.21-0.37,0.46-0.64,0.83-0.81c0.04-0.23,0-0.54,0.13-0.67
			c0.57-0.54,0.33-1.01,0.06-1.37c-0.48-0.22-0.87-0.34-1.19-0.55c-0.31-0.21-0.56-0.52-0.84-0.8c-0.18,0.14-0.37,0.28-0.55,0.42
			l-0.03-0.03c0-0.1,0-0.2,0-0.31c-0.69-0.33-1.37-0.66-2.03-0.98c-0.29,0.26-0.51,0.47-0.59,0.55c-0.51,0.17-0.85,0.26-1.18,0.4
			c-0.35,0.15-0.69,0.35-1.04,0.53c-0.31-0.36-0.48-0.86-1.07-0.78l-0.04-0.03c-0.25-0.7-0.72-1.24-1.43-1.4
			c-0.98-0.21-1.97-0.35-3.03-0.17c-0.29,0.56-0.68,1.07-1.46,1.09c-0.49-0.94-1.27-1.62-2.3-1.87c-0.51-0.12-0.77-0.51-1.18-0.75
			c-0.39,0-0.79,0-1.28,0c-0.14-0.68-0.27-1.34-0.4-1.96c-0.5-0.19-0.93-0.35-1.3-0.49c-0.41-0.89-1.12-1.3-1.94-1.59l-0.03-0.03
			c-0.07-0.17-0.1-0.4-0.23-0.51c-0.24-0.21-0.54-0.35-0.82-0.52c-0.52,0.05-0.82,0.36-0.98,0.82l-0.02,0.02c-0.1,0-0.2,0-0.37,0
			c-0.07,0.36,0.1,0.86-0.42,1c-0.22-0.08-0.43-0.15-0.54-0.19c-1.16,0.57-2.19,1.2-3.3,1.59c-0.9,0.31-1.47,0.84-1.95,1.59
			c-0.58,0.91-0.68,1.47-0.37,2.4c0.07,0.21,0.17,0.42,0.2,0.51c-0.19,0.64-0.68,0.38-1.04,0.54c-0.37,0.44-0.75,0.89-1.14,1.35
			c-0.89-0.18-0.89-0.18-1.4-0.01c-0.18-0.14-0.36-0.28-0.51-0.4c-0.53,0.42-0.96,0.85-1.48,1.15c-0.55,0.31-0.99,0.74-1.33,1.22
			c-0.2,0.28-0.42,0.34-0.58,0.46c-0.55-0.45-1.04-0.85-1.57-1.28c0.06-0.57,0.13-1.14,0.19-1.76c-0.62,0.3-1.12,0.63-1.68,0.78
			c-0.55,0.14-0.87,0.44-1.13,0.88l-0.03,0.03c-0.56,0.37-1.03,0.82-1.21,1.46c0.16,0.3,0.29,0.56,0.42,0.82
			c-0.63,0.63-0.74,1.41-0.82,2.2l-0.03,0.03c-0.16-0.01-0.33-0.03-0.55-0.04c-0.87-1.01-1.65-2.17-2.9-2.83l-0.03-0.03
			c0-0.1,0.03-0.24-0.02-0.29c-0.6-0.6-1.04-1.39-1.93-1.68c-0.26,0.13-0.55,0.27-0.97,0.49c-0.27,0.76-0.57,1.61-0.88,2.48
			c-0.42-0.37-0.82-0.79-1.11-1.33c-0.2-0.39-0.33-0.88-0.82-1.07c-0.07-0.07-0.14-0.14-0.21-0.21c0.05-0.12,0.1-0.23,0.14-0.32
			c-0.42-0.24-0.83-0.49-1.21-0.71c-0.17,0.3-0.32,0.55-0.46,0.81c-0.1,0.17-0.27,0.34-0.28,0.52c-0.01,0.78-0.4,1.3-1.07,1.65
			c-0.11,0.06-0.17,0.21-0.24,0.3c-0.14-0.07-0.22-0.12-0.28-0.15c-0.48,0.51-0.22,1.16-0.34,1.76c-0.15,0.08-0.28,0.17-0.43,0.23
			c-0.36,0.13-0.79,0.15-0.94,0.61l-0.04,0.03c-0.48,0.05-0.28,0.6-0.52,0.79c-0.26-0.07-0.47-0.12-0.68-0.18l-0.04-0.03
			c-0.15-0.2-0.3-0.4-0.37-0.48c-0.44-0.13-0.74-0.22-1.04-0.31l-0.03-0.03c-0.17-0.56-0.33-1.12-0.56-1.9
			c-0.09-0.1-0.3-0.37-0.75-0.37c-0.26,0-0.54-0.22-0.79-0.36c-0.63-0.35-1.21-0.76-1.97-0.87c-0.71-0.1-1.39-0.39-1.91-0.95
			c-0.25-0.28-0.59-0.41-0.95-0.47c-0.76,0.39-0.74,1.13-0.88,1.79c-0.21,0.22-0.41,0.44-0.59,0.64c0.11,0.21,0.18,0.35,0.28,0.54
			c-0.74,0.29-1.09,0.91-1.51,1.47c-0.43,0.58-0.72,1.23-0.89,1.93c-0.44-0.15-0.83-0.28-1.22-0.41c-0.21,0.19-0.39,0.35-0.55,0.49
			c0.02,0.25-0.02,0.48,0.07,0.65c0.25,0.5,0.5,1.02,0.84,1.46c0.51,0.67,0.86,1.5,1.75,1.8c0.12,0.04,0.18,0.22,0.3,0.27
			c0.49,0.23,0.83,0.69,1.35,0.85l0.03,0.03c0.23,0.4,0.46,0.8,0.63,1.1c0.39,0.24,0.69,0.42,0.97,0.58
			c-0.15,0.3-0.27,0.54-0.43,0.86c0.26,0.19,0.53,0.37,0.79,0.57c0.29,0.22,0.65,0.39,0.86,0.68c0.34,0.48,0.59,1.03,0.86,1.53
			c0.01,2.39,0.01,2.39,0.73,3.02c0.72,0.22,1.18-0.18,1.68-0.46c-0.07-0.11-0.11-0.2-0.17-0.28l0.03-0.03
			c0.12-0.03,0.33-0.03,0.35-0.1c0.11-0.27,0.2-0.56,0.23-0.85c0.03-0.27,0.02-0.53,0.4-0.64c0.05,0.49-0.09,1.03,0.42,1.42
			c0.36,0,0.76,0,1.19,0c0.16,0.27,0.31,0.52,0.45,0.74c0,0.41,0,0.78,0,1.04c-0.52,0.91-0.99,1.74-1.54,2.69c0.33,0,0.52,0,0.71,0
			l0.03,0.03c-0.01,0.06,0.01,0.15-0.03,0.2c-0.38,0.51-0.69,1.02-0.63,1.71c0.01,0.16-0.18,0.34-0.28,0.5
			c-0.16,0.03-0.31,0.06-0.47,0.09c-0.02,0.13-0.03,0.22-0.05,0.32c-0.15,0.16-0.3,0.31-0.45,0.47c0.45,0.41,0.8,0.02,1.13-0.02
			c0.57,0.34,0.25,0.88,0.39,1.3c0.27,0.52,0.54,1.04,0.77,1.58c0.09,0.23,0.24,0.19,0.4,0.18l0.03,0.03c0,0.1,0,0.2,0,0.35
			c0.27,0.03,0.52,0.06,0.6,0.07c0.69,0.34,0.86,0.88,1,1.38c0.32,1.14,1.05,1.86,2.14,2.22c0.86,0.29,1.8,0.35,2.6,0.86
			c0.17,0.11,0.47,0.01,0.61,0.01c0.33-0.19,0.57-0.34,0.83-0.5c0.55,0.64,1.13,1.04,1.86,1.26c0.41,0.12,0.77,0.36,1.08,0.52
			c0.15,0.31,0.28,0.56,0.36,0.74c0.53,0,0.93,0,1.34,0c-0.06-0.42-0.11-0.8-0.16-1.18l0.03-0.03c0.5,0.11,0.58-0.51,1.02-0.47
			c-0.1-0.33-0.17-0.57-0.22-0.74c0.57-0.42,1.08-0.8,1.55-1.14c0.6-0.14,1.17-0.31,1.75-0.4c0.68-0.1,0.99-0.6,1.3-1.16
			c0.94,0.45,2.07,0.27,2.8,1.11c0.27-0.11,0.48-0.19,0.64-0.26c0.43,0.25,0.54,0.62,0.68,1.01c0.13,0.36,0.4,0.68,0.55,0.92
			c0.7,0.43,1.38,0.74,1.91,1.21c0.58,0.52,1.21,0.94,1.88,1.23c0.25,0.75-0.21,1.24-0.54,1.76l-0.04,0.03
			c-0.26,0.11-0.53,0.22-0.92,0.39c-0.65-0.06-1.36,0.16-2.05,0.6c-0.12,0.3-0.23,0.6-0.34,0.88c0.33,0.22,0.61,0.41,0.76,0.51
			c1.12,0.11,2.12,0.22,3.1,0.32c0.13,0.25,0.24,0.49,0.38,0.75c0.22,0.07,0.47,0.14,0.72,0.22l0.02,0.02
			c-0.14,0.44-0.27,0.87-0.41,1.31c0.44,0.63,0.67,1.48,1.69,1.57c0.34-0.45,0.84-0.68,1.43-0.83c0.45,0.28,0.84,0.65,1.12,1.12
			c-0.06,0.13-0.11,0.25-0.11,0.25c0.32,0.4,0.57,0.72,0.74,0.92c0,0.56,0,0.96,0,1.41c-0.3-0.1-0.54-0.17-0.69-0.22
			c-0.67,0.49-1.26,0.94-1.92,1.42c0,0,0,0.1,0,0.2l-0.03,0.03c-0.13,0.01-0.25,0.02-0.51,0.05c0.43,0.56,0.78,1.03,1.15,1.51
			c-0.68,0.5-1.46,0.64-2.04,1.16c-0.6,0.54-0.66,1.36-1.11,1.97c-0.85,0-1.66,0-2.59,0c-0.33-0.38-0.71-0.82-1.12-1.29
			c-0.97-0.06-1.9-0.12-2.77-0.17c-0.38,0.24-0.69,0.44-1.09,0.7c-0.72-0.05-1.54-0.11-2.38-0.16c0.15,1.12,0.9,1.9,1.41,2.74
			c-0.2,0.49-0.38,0.91-0.54,1.28c-0.37,0.28-0.7,0.53-1.02,0.77c-0.09-0.05-0.15-0.08-0.25-0.13c-0.29,0.31-0.6,0.63-0.9,0.95
			c-0.3,0.33-0.88,0.38-0.99,1.02c0.99-0.01,1.39,0.97,2.31,1.31c0.22,0,0.55,0,0.93,0c0.33,0.26,0.63,0.67,1.02,0.77
			c0.92,0.25,1.65,0.83,2.47,1.26c0.7,0.36,1.31,0.85,1.77,1.47c0.21,0.29,0.43,0.46,0.8,0.6c0.35-0.4,0.75-0.23,1.15-0.02
			l0.03,0.03c0.38,1.02,1.04,1.77,2.07,2.17c0.62,0.24,1.24,0.48,1.68,1.03c0.11,0.14,0.35,0.18,0.56,0.28c0.62,0,1.26,0,1.92,0
			c0.22,0.21,0.44,0.41,0.68,0.63c0.34,0,0.67,0,0.98,0c0.22,0.21,0.42,0.4,0.64,0.61c0.4,0,0.8,0,1.18,0
			c0.33,0.39,0.63,0.74,0.97,1.14c-0.68,0.39-1.24,0.8-1.47,1.54c0,0.33-0.01,0.67,0,1.01c0.02,0.86,0.49,1.33,1.42,1.42l0.03,0.03
			c-0.05,0.36-0.1,0.71-0.16,1.18c0.59,0.49,1.26,1.05,1.91,1.59c0.11,0.36,0.23,0.72,0.28,0.89c0.61,0.29,1.05,0.49,1.48,0.7
			c0.21-0.36,0.37-0.64,0.52-0.89c0.75,0.22,0.62,0.95,0.94,1.36c0.16,0.09,0.31,0.15,0.44,0.25c0.85,0.64,1.4,1.45,1.33,2.56
			c-0.03,0.5,0.02,1.14,0.25,1.46c0.05,0.08,0.24,0.07,0.36,0.1l0.03,0.03c0.42,1.12,1.06,2.12,1.71,3.09c0.41,0,0.75,0,1.04,0
			c1.29,1.18,2,2.12,2.77,3.86c0.15,0.34,0.36,0.65,0.81,0.63c0.72,0.57,1.37,1.23,2.06,1.84c0.01,0.1-0.03,0.25,0.03,0.3
			c0.31,0.25,0.64,0.48,0.99,0.74c0.09-0.01,0.22-0.02,0.32-0.03c0.1-0.23,0.17-0.42,0.33-0.78c0.24,0.68,0.39,1.17,0.6,1.64
			c0.23,0.51,0.37,1.19,0.93,1.38c0.99,0.35,1.4,1.29,2.17,1.85c0.19,0.14,0.32,0.44,0.37,0.69c0.1,0.59,0.26,1.16,0.23,1.78
			c-0.05,0.92,0.01,1.84-0.02,2.76c-0.01,0.37,0.1,0.71,0.33,0.91c0.31,0.27,0.73,0.4,1.16,0.63c-0.08,0.37-0.17,0.75-0.26,1.11
			c0.63,0.72,1.05,1.6,2,1.94c0.12-0.55,0.31-1.08,0.78-1.32c0.35,0,0.62,0,0.79,0c0.21,0.56,0.39,1.05,0.54,1.46
			c0.44,0.29,0.8,0.52,1.16,0.76c0.05,0.2,0.1,0.38,0.15,0.6c1.05-0.09,1.92,0.33,2.69,0.68c-0.05,0.58-0.09,1.03-0.12,1.46
			c1.09,0.36,2.03,0.85,2.82,1.58c0.56,0.52,1.14,0.82,1.89,0.39c0.09-0.05,0.25-0.01,0.42-0.01c0.12,1.06-0.47,1.81-0.8,2.68
			c-1.51-0.17-2.47,0.5-3.07,1.81c0,0.28,0,0.58,0,0.89c0.45,0.59,0.86,1.18,0.85,2.05c0.22-0.09,0.36-0.15,0.51-0.21
			c0.63,0.49,0.76,1.3,1.2,1.96c0.26,0.13,0.56,0.28,0.94,0.48c0.25,0,0.58,0,0.91,0c0.54,1.24,0.58,1.28,1.77,1.53
			c0,0.28,0,0.58,0,0.63c0.42,0.83,1.32,0.45,1.68,1.16c-0.51,0.85-0.5,1.99-1.52,2.6c0,0.31,0,0.65,0,0.95
			c-0.58,0.13-1.13,0.25-1.55,0.35c-0.75,0.76-0.46,1.36,0.09,1.96c0.79,0.11,0.8,0.12,1.12,0.95c-0.23,0.17-0.51,0.35-0.74,0.56
			c-0.08,0.07-0.07,0.24-0.1,0.36l-0.02,0.02c-0.1,0-0.2,0-0.36,0c-0.12,0.96,0.51,1.75,0.58,2.62c-0.14,0.38-0.27,0.75-0.34,0.93
			c0.07,0.49,0.11,0.81,0.15,1.13l-0.03,0.03c-0.13,0.09-0.26,0.19-0.37,0.26c-0.02,0.41-0.04,0.77-0.07,1.21
			c-0.33,0.08-0.64,0.16-0.89,0.23c-0.26,0.43-0.5,0.82-0.76,1.26c0.45,0.57,0.24,1.1-0.11,1.63c-0.33,0.49-0.59,1.02-0.91,1.58
			c0.1,0.63,0.2,1.28,0.29,1.83c0.59,0.45,1.11,0.85,1.5,1.15c0.12,0.49,0.19,0.81,0.27,1.15c-0.31,0.43-0.12,0.95-0.19,1.47
			c0.21,0.23,0.41,0.47,0.63,0.72c0.13,0.14,0.27,0.28,0.41,0.41c0.01,0.1-0.02,0.24,0.03,0.3c0.56,0.67,0.85,1.22,0.99,1.93
			c0.08,0.42,0.13,0.85,0.21,1.27c0.38,1.77,0.27,3.59-0.58,5.03c-0.61,1.03-0.94,2.19-0.86,3.38c-0.16,0.3-0.29,0.57-0.4,0.79
			c-0.01,1.29,0.08,1.39,0.7,2.49c0.43,0.75,0.91,1.53,0.54,2.49c-0.07,0.19,0,0.47,0.04,0.7c0.04,0.29,0.13,0.58,0.15,0.87
			c0.03,0.51,0.01,1.02,0.01,1.53c-0.61,0.6-0.64,1.37-0.62,2.19c-0.42,0.18-0.81,0.35-1.14,0.49c-0.22,0.32-0.42,0.6-0.61,0.88
			c-0.37-0.65-0.86-1.12-1.51-1.38c-0.19,0.08-0.34,0.2-0.49,0.19c-1.1-0.07-1.72,0.78-2.53,1.28c-0.29,0.69-0.91,1.08-1.41,1.58
			c-0.37,0.38-0.8,0.72-1.24,1.02c-0.59,0.4-1.77,0.49-2.36,0.22c-0.23-0.11-0.43-0.28-0.7-0.46c-0.12,0.41-0.2,0.76-0.31,1.1
			c-0.11,0.34-0.26,0.67-0.39,1l-0.04,0.03c-0.57-0.03-1.12-0.16-1.71-0.04c-0.56,0.11-1.17-0.08-1.72,0.06
			c-0.56,0.14-1.14-0.3-1.66,0.1c0.22,0.58,0.44,1.16,0.65,1.72c-0.17,0.21-0.3,0.36-0.35,0.42c-0.04,0.33-0.07,0.57-0.09,0.8
			l-0.03,0.03c-0.14,0.11-0.29,0.23-0.41,0.33c0.16,0.38,0.3,0.69,0.46,1.05c-0.42-0.07-0.74-0.17-1.05-0.15s-0.61,0.15-0.96,0.25
			c-0.2-0.26-0.36-0.48-0.39-0.52c-0.63-0.21-1.05-0.34-1.49-0.49c-0.03,0.02-0.08,0.09-0.14,0.09c-0.71,0.01-1.24-0.56-2.01-0.59
			c-0.09,0.11-0.21,0.25-0.32,0.4l-0.03,0.03c-0.26,0.06-0.35,0.24-0.41,0.5c-0.09,0.37-0.25,0.73-0.37,1.05
			c-0.65,0.21-1.09-0.18-1.65-0.3c-0.33,0.27-0.7,0.56-1.03,0.83c0,0.34,0,0.61,0,0.86c0.36,0.21,0.7,0.41,0.98,0.57
			c-0.08,1.44-0.16,2.78-0.24,4.18c0.69,0.07,0.71,0.66,0.93,1c0.49,0.29,0.91,0.55,1.35,0.81c0.2,0.62,0.55,1.13,1.23,1.28
			c0.49,0.09,0.97,0.17,1.46,0.26l0.03,0.03c0.08,0.45,0.16,0.89,0.23,1.32c-0.34,0.27-0.59,0.47-0.85,0.67
			c0.26,0.82,0.91,1.53,0.74,2.57c-0.68-0.11-1.29-0.2-1.69-0.26c-0.94-0.44-1.24-1.32-2.03-1.67c-0.15,0.47-0.29,0.87-0.44,1.31
			c-0.26-0.09-0.47-0.17-0.68-0.24l-0.03-0.04c-0.1-0.79-0.48-1.47-0.81-2.17c-0.3-0.62-0.83-0.96-1.55-0.87
			c-0.11,0.24-0.19,0.41-0.27,0.58l-0.04,0.03c-0.4-0.11-0.72,0.12-1.02,0.31c-0.56,0.37-1.23,0.24-1.8,0.49
			c-0.56-0.34-1.18-0.16-1.75-0.2c-0.56,0.56-0.8,0.97-1.03,1.76c-1.25-0.73-2.74-0.81-4.09-1.45c-0.22,0.23-0.4,0.43-0.49,0.52
			c-0.17,0.79-0.04,1.41,0.23,1.99c0.16,0.34,0.18,0.62-0.03,0.94c-0.08,0.13-0.08,0.32-0.11,0.46c-0.08,0.03-0.14,0.05-0.2,0.07
			c-0.71,0.21-1.26,0.7-1.89,1.05c-0.07,0.04-0.07,0.23-0.1,0.36l-0.03,0.03c-0.18,0.15-0.38,0.27-0.52,0.44
			c-0.28,0.33-0.52,0.68-0.73,0.95c-1.29,0.1-2.44-0.08-3.56-0.39c-0.59,0.15-0.99,0.5-1.25,1.05c-0.16,0.32-0.42,0.6-0.67,0.87
			c-0.18,0.19-0.43,0.3-0.61,0.49c-0.1,0.1-0.12,0.28-0.18,0.41c0.12,0.12,0.21,0.22,0.3,0.32c0.1,1.09,0.31,1.4,1.27,1.9
			c0.31,0.74,0.43,1.61,1.38,1.98c0.09-0.71,0.53-1.09,1.1-1.36c0.33-0.16,0.6-0.16,0.93,0.07c0.47,0.33,0.83,0.77,1.11,1.23
			c0.26,0.44,0.62,0.61,1.05,0.63c0.47,0.02,0.83,0.18,1.18,0.46c0.12,0.09,0.3,0.1,0.45,0.15l0.03,0.03c0,0.1,0,0.2,0,0.29
			c0.28,0.15,0.54,0.28,0.78,0.41c0,0.23,0,0.43,0,0.53c-1.34,1.04-2.89,1.71-3.55,3.04c-0.13,0.76-0.26,1.28-0.32,1.81
			c-0.09,0.93-0.14,1.87-0.21,2.8c-0.01,0.1,0.03,0.22-0.01,0.3c-0.46,1.01-0.13,2.11-0.36,3.17c-0.29,1.33,0.18,2.76-0.25,4.13
			c-0.02,0.06-0.01,0.15,0.02,0.19c0.37,0.53,0.25,1.16,0.14,1.68c-0.14,0.61-0.14,1.19-0.16,1.81c0.27,0.28,0.55,0.58,0.84,0.88
			c-0.27,0.44-0.52,0.86-0.78,1.28c-0.46,0.01-0.95-0.06-1.31,0.42c0.29,0.49,0.73,0.82,1.26,1.03c0.37,0,0.73-0.01,1.1-0.01
			c0.39-0.01,0.78,0,1.17,0.02c0.7,0.04,1.3-0.21,1.92-0.45c0.28-0.11,0.54-0.26,0.8-0.39c0.56-0.27,1.03-0.66,1.33-1.19
			c0.2-0.34,0.44-0.56,0.79-0.72c0.33-0.15,0.63-0.38,0.97-0.5c0.55-0.22,0.9-0.64,1.06-1.15c0.37-1.23,1.09-2.26,1.76-3.31
			c0.32-0.51,0.82-0.81,1.48-0.93c1.06-0.2,2.11-0.51,3.07-1.03c1.51-0.82,3.06-1.55,4.7-2.05c0.5-0.15,0.96-0.49,1.47-0.56
			c0.44-0.06,0.67-0.28,0.92-0.59c-0.05-0.59,0-1.19,0.4-1.63c0-0.44,0-0.81,0-1.17c-0.35-0.45-0.38-1.11-1-1.34l-0.03-0.03
			c-0.03-0.5-0.45-0.79-0.67-1.19c-0.1-0.19-0.18-0.4-0.36-0.8c1.32,0.96,2.44,1.78,3.68,2.43c0.26,0.14,0.44,0.42,0.64,0.64
			c0.18,0.2,0.36,0.4,0.54,0.61c1.19-0.08,2.13-0.71,3.1-1.13c0.1-0.25,0.15-0.46,0.27-0.61c0.38-0.47,0.23-0.99-0.09-1.28
			c-0.73-0.67-0.91-1.61-1.36-2.4c-0.09-0.15-0.14-0.33-0.27-0.65c0.77,0.63,1.38,1.15,2.01,1.67c0.35-0.13,0.72-0.28,1.1-0.43
			c-0.09-0.15-0.14-0.24-0.19-0.32l0.03-0.04c0.12-0.01,0.24-0.02,0.39-0.03c0-0.26,0.06-0.47-0.01-0.65
			c-0.15-0.4-0.15-0.97-0.81-0.93c-0.07-0.07-0.14-0.14-0.21-0.21c0.23-0.42,0.49-0.17,0.71-0.06c0.29-0.68,0.55-1.39,0.9-2.05
			c0.35-0.67,0.16-1.56,0.93-2.03c-0.14-0.3-0.25-0.53-0.35-0.76c-0.12-0.01-0.22-0.02-0.32-0.02c0-0.18-0.04-0.38,0.25-0.42
			c0.06-0.01,0.11-0.13,0.17-0.19c0.13-0.09,0.26-0.19,0.43-0.31c0-0.37,0-0.73,0-1.02c0.3-0.42,0.62-0.34,0.94-0.26
			c0.05,0.21,0.11,0.38,0.16,0.58c0.63-0.27,1.19-0.5,1.75-0.74c-0.13-0.38-0.25-0.72-0.38-1.1c0.54-0.1,1.09-0.2,1.53-0.29
			c0.57,0.3,1.02,0.53,1.42,0.74c-0.04,0.21-0.08,0.37-0.1,0.53l-0.03,0.03c-0.03,0-0.07-0.02-0.1-0.01
			c-0.58,0.27-0.64,0.95-1.09,1.33c0,0,0.04,0.05,0.09,0.13c0.06,0.04,0.16,0.12,0.25,0.19c0.59-0.38,1.14-0.73,1.61-1.03
			c1.26-0.01,1.26-0.01,1.83-0.35c-0.04-0.09-0.08-0.18-0.12-0.27c0.07-0.07,0.14-0.14,0.21-0.21c0.25-0.07,0.5-0.14,0.76-0.21
			c0.92-0.23,1.84-0.46,2.71-0.82c0.28-0.12,0.47-0.26,0.4-0.6l0.03-0.03c0.17,0,0.28,0,0.41-0.18c0.53-0.75,1.19-1.17,1.99-1.22
			c0.42-0.03,0.76-0.2,1.12-0.35c0.62-0.24,1.07-0.68,1.56-1.15c0.78,0.09,1.57,0.19,2.37,0.29c0.45-1.14,0.48-2.37,1.15-3.5
			c0.33-0.07,0.71-0.13,1.09-0.23c0.41-0.11,0.81-0.26,1.23-0.4c0.26,0.2,0.53,0.4,0.81,0.62c0.22-0.25,0.61-0.38,0.53-0.81
			l0.03-0.04c0.48,0.11,0.54-0.38,0.79-0.59c0.57-0.47,1.11-0.94,1.92-0.84c0.02,0.01,0.06-0.08,0.08-0.11
			c-0.06-0.1-0.11-0.19-0.16-0.27l0.03-0.03c0.26-0.06,0.33-0.26,0.41-0.49c0.1-0.26,0.3-0.53,0.53-0.69
			c0.28-0.19,0.64-0.28,0.98-0.42c0.09,0.06,0.2,0.13,0.33,0.21c0.22-0.17,0.43-0.32,0.64-0.48c0.22,0.09,0.4,0.17,0.57,0.24
			l0.02,0.02c0.05,0.07,0.1,0.14,0.2,0.29c0.51-0.48,0.57-1.06,0.65-1.61c0.24-0.3,0.47-0.59,0.75-0.94
			c0.44-0.08,0.96-0.17,1.48-0.26c0.32,0.34,0.64,0.59,1.11,0.44c0.7-0.49,1.05-1.18,0.92-2.07c-0.13-0.87,0.28-1.61,0.5-2.4
			c0.45,0.08,0.86,0.16,1.21,0.22c0.69-0.68,0.68-0.68,1.01-1.58c0.14-0.36,0.33-0.71,0.56-1.21c0-0.13,0-0.44,0-0.77
			c-0.14-0.17-0.28-0.35-0.42-0.53c0-0.37,0-0.71,0-1.05c-0.25,0.1-0.5,0.2-0.75,0.3c-0.04-0.56-0.04-0.56,0.39-0.95
			c0.13,0.22,0.25,0.43,0.37,0.63c0.29,0.23,0.45,0.64,0.97,0.59c0-0.76,0-1.53,0-2.24c-0.28-0.67-0.55-1.3-0.83-1.96
			c0.23-0.39,0.45-0.75,0.66-1.09c0-0.26,0-0.49,0-0.71c-0.22-0.24-0.42-0.47-0.57-0.64c-0.14-0.58,0.38-0.61,0.58-0.88
			c-0.06-0.2-0.12-0.39-0.2-0.7c0.4,0.1,0.68,0.17,0.99,0.24c0.12-0.21,0.21-0.42,0.36-0.59c0.14-0.16,0.35-0.26,0.6-0.44
			c-0.31-0.47-0.6-0.89-0.87-1.3c0.07-0.14,0.12-0.26,0.21-0.43c-0.78-0.22-1-0.84-1.14-1.51c-0.13,0-0.23,0-0.33,0l-0.03-0.03
			c0.2-1.08,0.86-1.76,1.82-2.21c0.1,0.15,0.16,0.22,0.16,0.23c-0.12,0.36-0.22,0.67-0.32,0.98c-0.07,0.07-0.14,0.14-0.21,0.21
			c-0.14,0.03-0.28,0.06-0.57,0.13c0.75,0.64,1.46,1.02,2.24,1.29c0.19-0.11,0.39-0.22,0.58-0.32c0-0.4,0-0.77,0-1.15
			C240.52,234.73,239.82,233.92,239.91,232.76z"/>
		<path class="st2" d="M232.64,269.81c-0.1-0.03-0.2-0.06-0.43-0.14c0.28,0.54,0.55,0.86,1.07,1.05c0-0.46,0-0.84,0-1.25
			c-0.19,0-0.31,0-0.46,0C232.76,269.58,232.7,269.69,232.64,269.81z"/>
		<path class="st2" d="M214.04,95.11c-0.25,0.36-0.43,0.63-0.59,0.86c0,0.28,0,0.51,0,0.82c0.79,0.16,1.25-0.32,1.83-0.62
			c-0.02-0.26-0.04-0.51-0.06-0.82c-0.36,0.16-0.63,0.28-0.86,0.39C214.25,95.5,214.16,95.33,214.04,95.11z"/>
		<path class="st2" d="M194.86,300.6c0.55,0.09,0.87-0.35,1.33-0.47c-0.09-0.15-0.14-0.23-0.19-0.32l0.03-0.04
			c0.6-0.06,0.54-0.51,0.61-0.97c-0.36,0-0.65,0-0.88,0C195.02,299.21,194.57,299.72,194.86,300.6z"/>
		<path class="st2" d="M192.48,144.86C192.47,144.86,192.47,144.86,192.48,144.86C192.47,144.86,192.47,144.86,192.48,144.86
			C192.48,144.86,192.48,144.87,192.48,144.86c0.02,0.01,0.02,0.01,0.03,0C192.5,144.86,192.49,144.86,192.48,144.86z"/>
		<path class="st2" d="M153.99,271.29c-0.85-0.03-0.76,1.08-1.53,1.24c-0.37-0.1-0.8-0.38-1.35-0.11c0.31,0.87,0.8,1.54,1.48,2.1
			c0.22,0.18,0.42,0.46,0.51,0.73c0.2,0.66,0.39,1.33,0.46,2.01c0.06,0.56,0.34,0.96,0.62,1.55c0.62-0.9,0.71-1.76,0.64-2.47
			c0.33-0.89,0.59-1.59,0.83-2.25C155.37,272.96,155.03,271.92,153.99,271.29z"/>
	</g>
	<g>
		<path class="st2" d="M239.37,232.76c0.48-0.23,0.99-0.27,1.21-0.8c0-0.03,0-0.07,0-0.1c-0.01-0.55-0.1-0.91-0.34-1.19
			c-0.63-0.74-1.04-1.61-1.51-2.44c-0.55-0.97-0.62-1.95-0.21-2.89c-0.18-0.71-0.35-1.34-0.5-1.96c-0.09,0.05-0.21,0.11-0.41,0.22
			c-0.11-0.22-0.22-0.41-0.3-0.61c-0.02-0.06,0.05-0.16,0.07-0.23c0.24,0.12,0.44,0.22,0.68,0.34c0.21-0.21,0.42-0.43,0.62-0.64
			c-0.08-0.26-0.16-0.5-0.24-0.76c-0.1,0-0.2,0-0.3,0l-0.03-0.03c-0.03-0.43-0.39-0.87,0.01-1.22c-0.31-0.44-0.57-0.82-0.84-1.19
			c0.08-0.66,0.07-1.28-0.36-1.79c0.34-0.12,0.62-0.2,0.88-0.33c0.07-0.04,0.07-0.23,0.1-0.36l0.03-0.03
			c0.57-0.84,0.55-1.1-0.21-1.81l-0.03-0.04c-0.2-0.54-0.27-1.08,0.05-1.57c-0.39-0.68-0.75-1.3-1.09-1.91
			c0.19-0.23,0.34-0.41,0.43-0.52c-0.57-1.25-1.09-2.4-1.66-3.65c0.26-1.09-0.3-2.05-0.76-2.93c-0.1-0.64,0.12-1.2-0.22-1.7
			c-0.04-0.06-0.03-0.22,0.02-0.29c0.43-0.67,0.02-1.12-0.37-1.6c-0.21-0.25-0.46-0.51-0.58-0.81c-0.4-0.97-0.77-1.95-1.12-2.94
			c-0.36-1.05-0.51-2.14-0.4-3.21c0.17-0.28,0.32-0.52,0.48-0.77c-0.41-0.46-0.75-0.84-1.08-1.23c0.07-0.24,0.14-0.49,0.2-0.72
			c-0.32-0.18-0.58-0.32-0.73-0.4c-0.17-0.39-0.3-0.68-0.46-1.06c-0.19,0.16-0.3,0.28-0.44,0.36s-0.3,0.12-0.46,0.18
			c-0.31-0.35-0.6-0.68-0.96-1.09c-0.07-0.24-0.19-0.61-0.31-0.99c-0.63,0.03-1.09-0.19-1.47-0.61c-0.67-0.74-1.24-1.56-1.75-2.42
			c-0.57-0.97-0.83-2.08-1.27-3.05c-0.5-0.25-0.94-0.46-1.38-0.68l-0.03-0.03c-0.26-0.53-0.52-1.06-0.77-1.57c0-0.36,0-0.69,0-1.05
			c0.34-0.2,0.67-0.4,1.14-0.68c-0.6-0.31-1.1-0.49-1.67-0.62c-0.3,0.33-0.59,0.66-0.89,1.01c-0.17-0.18-0.33-0.35-0.45-0.48
			c0-0.24,0-0.41,0-0.63c0.32-0.25,0.66-0.51,1.02-0.79c-0.01-0.15-0.02-0.31-0.03-0.42c-0.62,0.06-1.17,0.1-1.64,0.15
			c-0.75-0.56-0.62-1.46-1.16-2.19c-0.1,0.31-0.17,0.51-0.24,0.71l-0.02,0.02c-0.34-0.07-0.68-0.14-1.01-0.22
			c-0.14-0.14-0.27-0.27-0.41-0.41c-0.03-0.13-0.02-0.33-0.1-0.37c-0.83-0.46-1.5-1.12-2.15-1.79c-0.17-0.17-0.31-0.37-0.6-0.29
			l-0.03-0.03c0-0.1,0-0.2,0-0.34c-0.6-0.25-1.2-0.49-1.8-0.75c-0.33-0.15-0.65-0.32-0.94-0.53c-0.9-0.66-1.79-1.36-2.69-2.03
			c-0.07-0.05-0.19-0.01-0.3-0.02c-0.07-0.07-0.14-0.14-0.21-0.21c-0.01-0.1,0.03-0.24-0.02-0.29c-0.29-0.26-0.57-0.57-0.91-0.73
			c-0.47-0.22-0.7-0.8-1.29-0.81l-0.04-0.03c0.01-0.17,0-0.27-0.18-0.4c-1.2-0.86-2.01-1.95-1.85-3.53
			c-0.47-0.62-1.09-0.96-1.81-1.19c-0.53-0.17-1.05-0.43-1.5-0.75c-1.08-0.77-2.13-1.59-3.17-2.38c-0.35-0.78-0.49-1.67-1.3-2.16
			l-0.03-0.04c-0.05-0.15-0.07-0.33-0.15-0.45c-0.6-0.87-1.31-1.67-1.82-2.62c-0.47-0.88-0.6-1.8-0.67-2.76
			c-0.01-0.12,0.11-0.24,0.13-0.37c0.07-0.67,0.54-1.12,0.9-1.55c-0.06-0.68-0.53-0.99-0.86-1.41c-0.33-0.41-0.28-1.04-0.77-1.36
			c-0.01-0.01-0.02-0.02-0.04-0.03c-0.01-0.01-0.02-0.01-0.03-0.02l0,0c-0.08,0.02-0.14,0.03-0.2,0.05
			c-0.05,0.01-0.09,0.02-0.13,0.03c-0.08,0.02-0.13,0.03-0.13,0.03c-0.72-0.31-0.9-1-1.53-1.19l-0.04-0.03
			c-0.58-1.02-1.63-1.32-2.63-1.59c-0.84-0.22-1.4-0.64-1.88-1.31c-0.46-0.65-0.75-1.42-1.42-1.92c-0.17-0.13-0.26-0.38-0.37-0.58
			c-0.66-1.18-0.98-2.5-1.44-3.76c-0.15-0.42-0.28-0.75-0.66-1.02c-0.29-0.21-0.51-0.56-0.7-0.88c-0.47-0.8-0.9-1.61-1.33-2.39
			c0-0.35,0-0.65,0-0.98c0.44-0.27,0.89-0.54,1.36-0.83c0.15-0.22,0.32-0.46,0.46-0.68c0-0.65,0-1.26,0-1.87l0.03-0.03
			c0.15-0.05,0.37-0.05,0.44-0.16c0.29-0.4,0.53-0.83,0.78-1.23c-0.16-0.34-0.24-0.68-0.44-0.93c-0.25-0.31-0.23-0.66-0.16-0.97
			c0.28-1.21,0.62-2.41,0.84-3.64c0.12-0.66,0.43-1.4,1.34-1.55c0.38-0.06,0.71-0.34,1.08-0.53c0.43,0,0.87,0,1.39,0
			c0.27-0.33,0.62-0.66,0.86-1.06c0.42-0.72,0.83-1.45,1.11-2.22c0.17-0.46,0.43-0.81,0.82-1.21c-0.13-1.01-0.26-2.06-0.41-3.25
			c0.19-0.37,0.45-0.87,1.04-1.1c0.07-0.03,0.07-0.24,0.1-0.36l0.03-0.03c0.39-0.19,0.77-0.38,1.17-0.57c0.31,0,0.65,0,1.03,0
			c0.56,0.89,1.5,1.23,2.44,1.55c0.23-0.39,0.33-0.56,0.24-0.72c-0.32-0.58-0.15-1.18-0.19-1.8c0.27-0.42,0.54-0.85,0.82-1.25
			c0.28-0.41,0.84-0.65,0.82-1.36c-0.14-0.18-0.32-0.43-0.54-0.74c0-0.35,0.6-0.52,0.53-1.03l0.02-0.03
			c0.34,0.09,0.5-0.17,0.67-0.37c0.36-0.43,0.87-0.65,1.36-0.83c0.61-0.22,1.28-0.29,1.87-0.42c0.58,0.24,0.59,0.77,0.75,1.17
			c0.15,0.02,0.28,0.06,0.41,0.11c0.02-0.02,0.03-0.04,0.05-0.06c-0.03-0.11,0-0.24,0.14-0.41h0.45c0.01,0,0.02-0.01,0.02-0.01
			l-0.22-0.39l0.03-0.03c0.07,0,0.16,0.03,0.2,0c0.42-0.46,0.83-0.93,1.24-1.39c-0.37-0.33-0.7-0.63-1.13-1.02
			c0.45-0.03,0.77-0.05,1.09-0.07c0.34-0.55,0.65-1.06,0.96-1.57c0.73-0.44,1.53-0.22,2.39-0.22c-0.22,0.62-0.76,0.86-1.06,1.32
			c0,0.18,0,0.38,0,0.62c0.33,0.13,0.66,0.26,1,0.4c0.11,0.31,0.22,0.61,0.35,0.98c0.29,0.12,0.61,0.27,0.92,0.4
			c0.27-0.31,0.66-0.43,0.58-0.87l0.03-0.03c0.1-0.01,0.26,0.02,0.29-0.02c0.32-0.54,0.63-1.08,0.92-1.64
			c0.25-0.46,0.46-0.94,0.72-1.4c0.38-0.65,0.83-1.27,0.92-2.04c-0.21-0.41-0.42-0.82-0.63-1.23l0.03-0.03
			c0.6-0.21,0.36-0.82,0.59-1.21l0.02-0.02c0.12-0.01,0.25-0.02,0.39-0.04c0-0.6,0-1.14,0-1.75c1.17-0.14,1.79-0.99,2.38-1.87
			c0.39,0.01,0.82-0.17,1.11,0.36c0,0.32,0,0.69,0,1.06c-0.07,0.07-0.14,0.14-0.21,0.21c-0.1,0-0.21,0-0.33,0
			c-0.11,0.24-0.21,0.47-0.38,0.85c0.86-0.16,1.58-0.3,2.37-0.45c0.09-0.57,0.17-1.09,0.26-1.63c0.16-0.11,0.34-0.24,0.62-0.42
			c-0.77-1.02-1.53-2-2.33-3.05c0,0-0.1,0-0.2,0l-0.03-0.03c-0.09-0.13-0.19-0.26-0.29-0.41c-0.69,0.26-1.38,0.44-2.01,0.83
			c-0.35,0.22-0.79,0.35-1.2,0.4c-0.79,0.09-1.46-0.26-2.03-0.8c-0.18-0.17-0.4-0.3-0.54-0.41c-0.36,0.12-0.64,0.22-0.89,0.3
			c-0.18,0.25-0.34,0.47-0.52,0.73c-0.45-0.79-0.85-1.5-1.26-2.22c-0.27,0-0.56,0-0.87,0c0,0.15,0,0.25,0,0.35l-0.03,0.03
			c-0.26,0.21-0.53,0.2-0.79,0l-0.03-0.04c-0.16-0.48-0.43-0.95-0.72-1.04c-0.7-0.21-1.37-0.55-2.12-0.57l-0.02-0.03
			c0.01-0.17,0.02-0.34,0.03-0.45c0.19-0.39,0.73-0.53,0.55-1.14c-0.18-0.18-0.42-0.42-0.7-0.7c-0.39,0.09-0.77,0.17-1.2,0.27
			c-0.5-1.16-1.54-0.77-2.45-0.85c-0.21-0.2-0.44-0.41-0.6-0.56c-0.3-0.05-0.52-0.09-0.69-0.11c0.08-0.73,0.14-1.39,0.19-1.93
			c-0.28-0.53-0.65-0.93-0.37-1.41c0.25-0.43,0.09-0.76-0.08-1.13c-0.13-0.3-0.25-0.6-0.42-0.99c-0.23,0-0.59,0-0.97,0
			c-0.17-0.29-0.32-0.55-0.47-0.8c0.1-0.76-0.22-1.57,0.33-2.24c0.61-0.3,1.19-0.6,1.69-0.84c0.27,0.08,0.44,0.13,0.66,0.2
			c0-0.28,0.05-0.47-0.01-0.61c-0.17-0.38-0.29-0.7-0.05-1.13c0.21-0.37,0.46-0.64,0.83-0.81c0.04-0.23,0-0.54,0.13-0.67
			c0.57-0.54,0.33-1.01,0.06-1.37c-0.48-0.22-0.87-0.34-1.19-0.55c-0.31-0.21-0.56-0.52-0.84-0.8c-0.18,0.14-0.37,0.28-0.55,0.42
			l-0.03-0.03c0-0.1,0-0.2,0-0.31c-0.69-0.33-1.37-0.66-2.03-0.98c-0.29,0.26-0.51,0.47-0.59,0.55c-0.51,0.17-0.85,0.26-1.18,0.4
			c-0.35,0.15-0.69,0.35-1.04,0.53c-0.31-0.36-0.48-0.86-1.07-0.78l-0.04-0.03c-0.25-0.7-0.72-1.24-1.43-1.4
			c-0.98-0.21-1.97-0.35-3.03-0.17c-0.29,0.56-0.68,1.07-1.46,1.09c-0.49-0.94-1.27-1.62-2.3-1.87c-0.51-0.12-0.77-0.51-1.18-0.75
			c-0.39,0-0.79,0-1.28,0c-0.14-0.68-0.27-1.34-0.4-1.96c-0.5-0.19-0.93-0.35-1.3-0.49c-0.41-0.89-1.12-1.3-1.94-1.59l-0.03-0.03
			c-0.07-0.17-0.1-0.4-0.23-0.51c-0.24-0.21-0.54-0.35-0.82-0.52c-0.52,0.05-0.82,0.36-0.98,0.82l-0.02,0.02c-0.1,0-0.2,0-0.37,0
			c-0.07,0.36,0.1,0.86-0.42,1c-0.22-0.08-0.43-0.15-0.54-0.19c-1.16,0.57-2.19,1.2-3.3,1.59c-0.9,0.31-1.47,0.84-1.95,1.59
			c-0.58,0.91-0.68,1.47-0.37,2.4c0.07,0.21,0.17,0.42,0.2,0.51c-0.19,0.64-0.68,0.38-1.04,0.54c-0.37,0.44-0.75,0.89-1.14,1.35
			c-0.89-0.18-0.89-0.18-1.4-0.01c-0.18-0.14-0.36-0.28-0.51-0.4c-0.53,0.42-0.96,0.85-1.48,1.15c-0.55,0.31-0.99,0.74-1.33,1.22
			c-0.2,0.28-0.42,0.34-0.58,0.46c-0.55-0.45-1.04-0.85-1.57-1.28c0.06-0.57,0.13-1.14,0.19-1.76c-0.62,0.3-1.12,0.63-1.68,0.78
			c-0.55,0.14-0.87,0.44-1.13,0.88l-0.03,0.03c-0.56,0.37-1.03,0.82-1.21,1.46c0.16,0.3,0.29,0.56,0.42,0.82
			c-0.63,0.63-0.74,1.41-0.82,2.2l-0.03,0.03c-0.16-0.01-0.33-0.03-0.55-0.04c-0.87-1.01-1.65-2.17-2.9-2.83l-0.03-0.03
			c0-0.1,0.03-0.24-0.02-0.29c-0.6-0.6-1.04-1.39-1.93-1.68c-0.26,0.13-0.55,0.27-0.97,0.49c-0.27,0.76-0.57,1.61-0.88,2.48
			c-0.42-0.37-0.82-0.79-1.11-1.33c-0.2-0.39-0.33-0.88-0.82-1.07c-0.07-0.07-0.14-0.14-0.21-0.21c0.05-0.12,0.1-0.23,0.14-0.32
			c-0.42-0.24-0.83-0.49-1.21-0.71c-0.17,0.3-0.32,0.55-0.46,0.81c-0.1,0.17-0.27,0.34-0.28,0.52c-0.01,0.78-0.4,1.3-1.07,1.65
			c-0.11,0.06-0.17,0.21-0.24,0.3c-0.14-0.07-0.22-0.12-0.28-0.15c-0.48,0.51-0.22,1.16-0.34,1.76c-0.15,0.08-0.28,0.17-0.43,0.23
			c-0.36,0.13-0.79,0.15-0.94,0.61l-0.04,0.03c-0.48,0.05-0.28,0.6-0.52,0.79c-0.26-0.07-0.47-0.12-0.68-0.18l-0.04-0.03
			c-0.15-0.2-0.3-0.4-0.37-0.48c-0.44-0.13-0.74-0.22-1.04-0.31l-0.03-0.03c-0.17-0.56-0.33-1.12-0.56-1.9
			c-0.09-0.1-0.3-0.37-0.75-0.37c-0.26,0-0.54-0.22-0.79-0.36c-0.63-0.35-1.21-0.76-1.97-0.87c-0.71-0.1-1.39-0.39-1.91-0.95
			c-0.25-0.28-0.59-0.41-0.95-0.47c-0.76,0.39-0.74,1.13-0.88,1.79c-0.21,0.22-0.41,0.44-0.59,0.64c0.11,0.21,0.18,0.35,0.28,0.54
			c-0.74,0.29-1.09,0.91-1.51,1.47c-0.43,0.58-0.72,1.23-0.89,1.93c-0.44-0.15-0.83-0.28-1.22-0.41c-0.21,0.19-0.39,0.35-0.55,0.49
			c0.02,0.25-0.02,0.48,0.07,0.65c0.25,0.5,0.5,1.02,0.84,1.46c0.51,0.67,0.86,1.5,1.75,1.8c0.12,0.04,0.18,0.22,0.3,0.27
			c0.49,0.23,0.83,0.69,1.35,0.85l0.03,0.03c0.23,0.4,0.46,0.8,0.63,1.1c0.39,0.24,0.69,0.42,0.97,0.58
			c-0.15,0.3-0.27,0.54-0.43,0.86c0.26,0.19,0.53,0.37,0.79,0.57c0.29,0.22,0.65,0.39,0.86,0.68c0.34,0.48,0.59,1.03,0.86,1.53
			c0.01,2.39,0.01,2.39,0.73,3.02c0.72,0.22,1.18-0.18,1.68-0.46c-0.07-0.11-0.11-0.2-0.17-0.28l0.03-0.03
			c0.12-0.03,0.33-0.03,0.35-0.1c0.11-0.27,0.2-0.56,0.23-0.85c0.03-0.27,0.02-0.53,0.4-0.64c0.05,0.49-0.09,1.03,0.42,1.42
			c0.36,0,0.76,0,1.19,0c0.16,0.27,0.31,0.52,0.45,0.74c0,0.41,0,0.78,0,1.04c-0.52,0.91-0.99,1.74-1.54,2.69c0.33,0,0.52,0,0.71,0
			l0.03,0.03c-0.01,0.06,0.01,0.15-0.03,0.2c-0.38,0.51-0.69,1.02-0.63,1.71c0.01,0.16-0.18,0.34-0.28,0.5
			c-0.16,0.03-0.31,0.06-0.47,0.09c-0.02,0.13-0.03,0.22-0.05,0.32c-0.15,0.16-0.3,0.31-0.45,0.47c0.45,0.41,0.8,0.02,1.13-0.02
			c0.57,0.34,0.25,0.88,0.39,1.3c0.27,0.52,0.54,1.04,0.77,1.58c0.09,0.23,0.24,0.19,0.4,0.18l0.04,0.03c0,0.1,0,0.2,0,0.35
			c0.27,0.03,0.52,0.06,0.6,0.07c0.69,0.34,0.86,0.88,1,1.38c0.32,1.14,1.05,1.86,2.14,2.22c0.87,0.29,1.8,0.35,2.6,0.86
			c0.17,0.11,0.47,0.01,0.61,0.01c0.33-0.19,0.57-0.34,0.83-0.5c0.55,0.64,1.13,1.04,1.86,1.26c0.41,0.12,0.77,0.36,1.08,0.52
			c0.15,0.31,0.28,0.56,0.36,0.74c0.53,0,0.93,0,1.34,0c-0.06-0.42-0.11-0.8-0.16-1.18l0.03-0.03c0.5,0.11,0.58-0.51,1.02-0.47
			c-0.1-0.33-0.17-0.57-0.22-0.74c0.57-0.42,1.08-0.8,1.55-1.14c0.6-0.14,1.17-0.31,1.75-0.4c0.68-0.1,0.99-0.6,1.3-1.16
			c0.94,0.45,2.07,0.27,2.8,1.11c0.27-0.11,0.48-0.19,0.64-0.26c0.43,0.25,0.54,0.62,0.68,1.01c0.13,0.36,0.4,0.68,0.55,0.92
			c0.7,0.43,1.38,0.74,1.91,1.21c0.58,0.52,1.21,0.94,1.88,1.23c0.25,0.75-0.21,1.24-0.54,1.76l-0.04,0.03
			c-0.26,0.11-0.53,0.22-0.92,0.39c-0.65-0.06-1.36,0.16-2.05,0.6c-0.12,0.3-0.23,0.6-0.34,0.88c0.33,0.22,0.61,0.41,0.76,0.51
			c1.12,0.11,2.12,0.22,3.1,0.32c0.13,0.25,0.24,0.49,0.38,0.75c0.22,0.07,0.47,0.14,0.72,0.22l0.02,0.02
			c-0.14,0.44-0.27,0.87-0.41,1.31c0.44,0.63,0.67,1.48,1.69,1.57c0.34-0.45,0.84-0.68,1.43-0.83c0.45,0.28,0.84,0.65,1.12,1.12
			c-0.06,0.13-0.11,0.25-0.11,0.25c0.32,0.4,0.57,0.72,0.74,0.92c0,0.56,0,0.96,0,1.41c-0.3-0.1-0.54-0.17-0.69-0.22
			c-0.67,0.49-1.26,0.94-1.92,1.42c0,0,0,0.1,0,0.2l-0.03,0.03c-0.13,0.01-0.25,0.02-0.51,0.05c0.43,0.56,0.78,1.03,1.15,1.51
			c-0.68,0.5-1.46,0.64-2.04,1.16c-0.6,0.54-0.66,1.36-1.11,1.97c-0.85,0-1.66,0-2.59,0c-0.33-0.38-0.71-0.82-1.12-1.29
			c-0.97-0.06-1.9-0.12-2.77-0.17c-0.38,0.24-0.69,0.44-1.09,0.7c-0.72-0.05-1.54-0.11-2.38-0.16c0.15,1.12,0.9,1.9,1.41,2.74
			c-0.2,0.49-0.38,0.91-0.54,1.28c-0.37,0.28-0.7,0.53-1.02,0.77c-0.09-0.05-0.15-0.08-0.25-0.13c-0.29,0.31-0.6,0.63-0.9,0.95
			c-0.31,0.33-0.88,0.38-0.99,1.02c0.99-0.01,1.39,0.97,2.31,1.31c0.22,0,0.55,0,0.93,0c0.33,0.26,0.63,0.67,1.02,0.77
			c0.92,0.25,1.65,0.83,2.47,1.26c0.7,0.36,1.31,0.85,1.77,1.47c0.21,0.29,0.43,0.46,0.8,0.6c0.35-0.4,0.75-0.23,1.15-0.02
			l0.03,0.03c0.38,1.02,1.04,1.77,2.07,2.17c0.62,0.24,1.24,0.48,1.68,1.03c0.11,0.14,0.35,0.18,0.56,0.28c0.62,0,1.26,0,1.92,0
			c0.22,0.21,0.44,0.41,0.68,0.63c0.34,0,0.67,0,0.98,0c0.22,0.21,0.42,0.4,0.64,0.61c0.4,0,0.8,0,1.18,0
			c0.33,0.39,0.63,0.74,0.97,1.14c-0.68,0.39-1.24,0.8-1.47,1.54c0,0.33-0.01,0.67,0,1.01c0.02,0.86,0.49,1.33,1.42,1.42l0.03,0.03
			c-0.05,0.36-0.1,0.71-0.16,1.18c0.59,0.49,1.26,1.05,1.91,1.59c0.11,0.36,0.23,0.72,0.28,0.89c0.61,0.29,1.05,0.49,1.48,0.7
			c0.21-0.36,0.37-0.64,0.52-0.89c0.75,0.22,0.62,0.95,0.94,1.36c0.16,0.09,0.31,0.15,0.44,0.25c0.85,0.64,1.4,1.45,1.33,2.56
			c-0.03,0.5,0.02,1.14,0.25,1.46c0.05,0.08,0.24,0.07,0.36,0.1l0.03,0.03c0.42,1.12,1.06,2.12,1.71,3.09c0.41,0,0.75,0,1.04,0
			c1.29,1.18,2,2.12,2.77,3.86c0.15,0.34,0.36,0.65,0.81,0.63c0.72,0.57,1.37,1.23,2.06,1.84c0.01,0.1-0.03,0.25,0.03,0.3
			c0.31,0.25,0.64,0.48,0.99,0.74c0.09-0.01,0.22-0.02,0.32-0.03c0.1-0.23,0.17-0.42,0.33-0.78c0.24,0.68,0.39,1.17,0.6,1.64
			c0.23,0.51,0.37,1.19,0.93,1.38c0.99,0.35,1.4,1.29,2.17,1.85c0.19,0.14,0.32,0.44,0.37,0.69c0.1,0.59,0.26,1.16,0.23,1.78
			c-0.05,0.92,0.01,1.84-0.02,2.76c-0.01,0.37,0.1,0.71,0.33,0.91c0.31,0.27,0.73,0.4,1.16,0.63c-0.08,0.37-0.17,0.75-0.26,1.11
			c0.63,0.72,1.05,1.6,2,1.94c0.12-0.55,0.31-1.08,0.78-1.32c0.35,0,0.62,0,0.79,0c0.21,0.56,0.39,1.05,0.54,1.46
			c0.44,0.29,0.8,0.52,1.16,0.76c0.05,0.2,0.1,0.38,0.15,0.6c1.05-0.09,1.92,0.33,2.69,0.68c-0.05,0.58-0.09,1.03-0.12,1.46
			c1.09,0.36,2.03,0.85,2.82,1.58c0.56,0.52,1.14,0.82,1.89,0.39c0.09-0.05,0.25-0.01,0.42-0.01c0.12,1.06-0.47,1.81-0.8,2.68
			c-1.51-0.17-2.47,0.5-3.07,1.81c0,0.28,0,0.58,0,0.89c0.45,0.59,0.86,1.18,0.85,2.05c0.22-0.09,0.36-0.15,0.51-0.21
			c0.63,0.49,0.76,1.3,1.2,1.96c0.26,0.13,0.56,0.28,0.94,0.48c0.25,0,0.58,0,0.91,0c0.54,1.24,0.58,1.28,1.77,1.53
			c0,0.28,0,0.58,0,0.63c0.42,0.83,1.32,0.45,1.68,1.16c-0.51,0.85-0.5,1.99-1.52,2.6c0,0.31,0,0.65,0,0.95
			c-0.58,0.13-1.13,0.25-1.55,0.35c-0.75,0.76-0.46,1.36,0.09,1.96c0.79,0.11,0.8,0.12,1.12,0.95c-0.23,0.17-0.51,0.35-0.74,0.56
			c-0.08,0.07-0.07,0.24-0.1,0.36l-0.02,0.02c-0.1,0-0.2,0-0.36,0c-0.12,0.96,0.51,1.75,0.58,2.62c-0.14,0.38-0.27,0.75-0.34,0.93
			c0.07,0.49,0.11,0.81,0.15,1.13l-0.03,0.03c-0.13,0.09-0.26,0.19-0.37,0.26c-0.02,0.41-0.04,0.77-0.07,1.21
			c-0.33,0.08-0.64,0.16-0.89,0.23c-0.26,0.43-0.5,0.82-0.76,1.26c0.45,0.57,0.24,1.1-0.11,1.63c-0.33,0.49-0.59,1.02-0.91,1.58
			c0.1,0.63,0.2,1.28,0.29,1.83c0.59,0.45,1.11,0.85,1.5,1.15c0.12,0.49,0.19,0.81,0.27,1.15c-0.31,0.43-0.12,0.95-0.19,1.47
			c0.21,0.23,0.41,0.47,0.63,0.72c0.13,0.14,0.27,0.28,0.41,0.41c0.01,0.1-0.02,0.24,0.03,0.3c0.56,0.67,0.85,1.22,0.99,1.93
			c0.08,0.42,0.13,0.85,0.21,1.27c0.38,1.77,0.27,3.59-0.58,5.03c-0.61,1.03-0.94,2.19-0.86,3.38c-0.16,0.3-0.29,0.57-0.4,0.79
			c-0.01,1.29,0.08,1.39,0.7,2.49c0.43,0.75,0.91,1.53,0.54,2.49c-0.07,0.19,0,0.47,0.04,0.7c0.04,0.29,0.13,0.58,0.15,0.87
			c0.03,0.51,0.01,1.02,0.01,1.53c-0.61,0.6-0.64,1.37-0.62,2.19c-0.42,0.18-0.81,0.35-1.14,0.49c-0.22,0.32-0.42,0.6-0.61,0.88
			c-0.37-0.65-0.86-1.12-1.51-1.38c-0.19,0.08-0.34,0.2-0.49,0.19c-1.1-0.07-1.72,0.78-2.53,1.28c-0.29,0.69-0.91,1.08-1.41,1.58
			c-0.37,0.38-0.8,0.72-1.24,1.02c-0.59,0.4-1.77,0.49-2.36,0.22c-0.23-0.11-0.43-0.28-0.7-0.46c-0.12,0.41-0.2,0.76-0.31,1.1
			c-0.11,0.34-0.26,0.67-0.39,1l-0.04,0.03c-0.57-0.03-1.12-0.16-1.71-0.04c-0.56,0.11-1.17-0.08-1.72,0.06
			c-0.56,0.14-1.14-0.3-1.66,0.1c0.22,0.58,0.44,1.16,0.65,1.72c-0.17,0.21-0.3,0.36-0.35,0.42c-0.04,0.33-0.07,0.57-0.09,0.8
			l-0.03,0.03c-0.14,0.11-0.29,0.23-0.41,0.33c0.16,0.38,0.3,0.69,0.46,1.05c-0.42-0.07-0.74-0.17-1.05-0.15s-0.61,0.15-0.96,0.25
			c-0.2-0.26-0.36-0.48-0.39-0.52c-0.63-0.21-1.05-0.34-1.5-0.49c-0.03,0.02-0.08,0.09-0.14,0.09c-0.71,0.01-1.24-0.56-2.01-0.59
			c-0.09,0.11-0.21,0.25-0.32,0.4l-0.03,0.03c-0.26,0.06-0.35,0.24-0.41,0.5c-0.09,0.37-0.25,0.73-0.37,1.05
			c-0.65,0.21-1.09-0.18-1.65-0.3c-0.33,0.27-0.7,0.56-1.03,0.83c0,0.34,0,0.61,0,0.86c0.36,0.21,0.7,0.41,0.98,0.57
			c-0.08,1.44-0.16,2.78-0.24,4.18c0.69,0.07,0.71,0.66,0.93,1c0.49,0.29,0.91,0.55,1.35,0.81c0.2,0.62,0.55,1.13,1.23,1.28
			c0.49,0.09,0.97,0.17,1.46,0.26l0.03,0.03c0.08,0.45,0.16,0.89,0.23,1.32c-0.34,0.27-0.59,0.47-0.85,0.67
			c0.26,0.82,0.91,1.53,0.74,2.57c-0.68-0.11-1.29-0.2-1.69-0.26c-0.94-0.44-1.24-1.32-2.03-1.67c-0.15,0.47-0.29,0.87-0.44,1.31
			c-0.26-0.09-0.47-0.17-0.68-0.24l-0.03-0.04c-0.1-0.79-0.48-1.47-0.81-2.17c-0.3-0.62-0.83-0.96-1.55-0.87
			c-0.11,0.24-0.19,0.41-0.27,0.58l-0.04,0.03c-0.4-0.11-0.72,0.12-1.02,0.31c-0.56,0.37-1.23,0.24-1.8,0.49
			c-0.56-0.34-1.18-0.16-1.75-0.2c-0.56,0.56-0.8,0.97-1.03,1.76c-1.25-0.73-2.74-0.81-4.09-1.45c-0.22,0.23-0.4,0.43-0.49,0.52
			c-0.17,0.79-0.04,1.41,0.23,1.99c0.16,0.34,0.18,0.62-0.03,0.94c-0.08,0.13-0.08,0.32-0.11,0.46c-0.08,0.03-0.14,0.05-0.2,0.07
			c-0.71,0.21-1.26,0.7-1.89,1.05c-0.07,0.04-0.07,0.23-0.1,0.36l-0.03,0.03c-0.18,0.15-0.38,0.27-0.52,0.44
			c-0.28,0.33-0.52,0.68-0.73,0.95c-1.29,0.1-2.44-0.08-3.56-0.39c-0.59,0.15-0.99,0.5-1.25,1.05c-0.16,0.32-0.42,0.6-0.67,0.87
			c-0.18,0.19-0.43,0.3-0.61,0.49c-0.1,0.1-0.12,0.28-0.18,0.41c0.12,0.12,0.21,0.22,0.3,0.32c0.1,1.09,0.31,1.4,1.27,1.9
			c0.31,0.74,0.43,1.61,1.38,1.98c0.09-0.71,0.53-1.09,1.1-1.36c0.33-0.16,0.6-0.16,0.93,0.07c0.47,0.33,0.83,0.77,1.11,1.23
			c0.26,0.44,0.62,0.61,1.05,0.63c0.47,0.02,0.83,0.18,1.18,0.46c0.12,0.09,0.3,0.1,0.45,0.15l0.03,0.03c0,0.1,0,0.2,0,0.29
			c0.28,0.15,0.54,0.28,0.78,0.41c0,0.23,0,0.43,0,0.53c-1.34,1.04-2.89,1.71-3.55,3.04c-0.13,0.76-0.26,1.28-0.32,1.81
			c-0.09,0.93-0.14,1.87-0.21,2.8c-0.01,0.1,0.03,0.22-0.01,0.3c-0.46,1.01-0.13,2.11-0.36,3.17c-0.29,1.33,0.18,2.76-0.25,4.13
			c-0.02,0.06-0.01,0.15,0.02,0.19c0.37,0.53,0.25,1.16,0.14,1.68c-0.14,0.61-0.14,1.19-0.16,1.81c0.27,0.28,0.55,0.58,0.84,0.88
			c-0.27,0.44-0.52,0.86-0.78,1.28c-0.46,0.01-0.95-0.06-1.31,0.42c0.29,0.49,0.73,0.82,1.26,1.03c0.37,0,0.73-0.01,1.1-0.01
			c0.39-0.01,0.78,0,1.17,0.02c0.7,0.04,1.3-0.21,1.92-0.45c0.28-0.11,0.54-0.26,0.8-0.39c0.56-0.27,1.03-0.66,1.33-1.19
			c0.2-0.34,0.44-0.56,0.79-0.72c0.33-0.15,0.63-0.38,0.97-0.5c0.55-0.22,0.9-0.64,1.06-1.15c0.37-1.23,1.09-2.26,1.76-3.31
			c0.32-0.51,0.82-0.81,1.48-0.93c1.06-0.2,2.11-0.51,3.07-1.03c1.51-0.82,3.06-1.55,4.7-2.05c0.5-0.15,0.96-0.49,1.47-0.56
			c0.44-0.06,0.67-0.28,0.92-0.59c-0.05-0.59,0-1.19,0.4-1.63c0-0.44,0-0.81,0-1.17c-0.35-0.45-0.38-1.11-1-1.34l-0.03-0.03
			c-0.03-0.5-0.45-0.79-0.67-1.19c-0.1-0.19-0.18-0.4-0.36-0.8c1.32,0.96,2.44,1.78,3.68,2.43c0.26,0.14,0.44,0.42,0.64,0.64
			c0.18,0.2,0.36,0.4,0.54,0.61c1.19-0.08,2.13-0.71,3.1-1.13c0.1-0.25,0.15-0.46,0.27-0.61c0.38-0.47,0.23-0.99-0.09-1.28
			c-0.73-0.67-0.91-1.61-1.36-2.4c-0.09-0.15-0.14-0.33-0.27-0.65c0.77,0.63,1.38,1.15,2.01,1.67c0.35-0.13,0.72-0.28,1.1-0.43
			c-0.09-0.15-0.14-0.24-0.19-0.32l0.03-0.04c0.12-0.01,0.24-0.02,0.39-0.03c0-0.26,0.06-0.47-0.01-0.65
			c-0.15-0.4-0.15-0.97-0.81-0.93c-0.07-0.07-0.14-0.14-0.21-0.21c0.23-0.42,0.49-0.17,0.71-0.06c0.29-0.68,0.55-1.39,0.9-2.05
			c0.35-0.67,0.16-1.56,0.93-2.03c-0.14-0.3-0.25-0.53-0.35-0.76c-0.12-0.01-0.22-0.02-0.32-0.02c0-0.18-0.04-0.38,0.25-0.42
			c0.06-0.01,0.11-0.13,0.17-0.19c0.13-0.09,0.26-0.19,0.43-0.31c0-0.37,0-0.73,0-1.02c0.3-0.42,0.62-0.34,0.94-0.26
			c0.05,0.21,0.11,0.38,0.16,0.58c0.63-0.27,1.19-0.5,1.75-0.74c-0.13-0.38-0.25-0.72-0.38-1.1c0.54-0.1,1.09-0.2,1.53-0.29
			c0.57,0.3,1.02,0.53,1.42,0.74c-0.04,0.21-0.08,0.37-0.1,0.53l-0.03,0.03c-0.03,0-0.07-0.02-0.1-0.01
			c-0.58,0.27-0.64,0.95-1.09,1.33c0,0,0.04,0.05,0.09,0.13c0.06,0.04,0.16,0.12,0.25,0.19c0.59-0.38,1.14-0.73,1.61-1.03
			c1.26-0.01,1.26-0.01,1.83-0.35c-0.04-0.09-0.08-0.18-0.12-0.27c0.07-0.07,0.14-0.14,0.21-0.21c0.25-0.07,0.5-0.14,0.76-0.21
			c0.92-0.23,1.84-0.46,2.71-0.82c0.28-0.12,0.47-0.26,0.4-0.6l0.03-0.03c0.17,0,0.28,0,0.41-0.18c0.53-0.75,1.19-1.17,1.99-1.22
			c0.42-0.03,0.76-0.2,1.12-0.35c0.62-0.24,1.07-0.68,1.56-1.15c0.78,0.09,1.57,0.19,2.37,0.29c0.45-1.14,0.48-2.37,1.15-3.5
			c0.33-0.07,0.71-0.13,1.09-0.23c0.41-0.11,0.81-0.26,1.23-0.4c0.26,0.2,0.53,0.4,0.81,0.62c0.22-0.25,0.61-0.38,0.53-0.81
			l0.03-0.04c0.48,0.11,0.54-0.38,0.79-0.59c0.57-0.47,1.11-0.94,1.92-0.84c0.02,0.01,0.06-0.08,0.08-0.11
			c-0.06-0.1-0.11-0.19-0.16-0.27l0.03-0.03c0.26-0.06,0.33-0.26,0.41-0.49c0.1-0.26,0.3-0.53,0.53-0.69
			c0.28-0.19,0.64-0.28,0.98-0.42c0.09,0.06,0.2,0.13,0.33,0.21c0.22-0.17,0.43-0.32,0.64-0.48c0.22,0.09,0.4,0.17,0.57,0.24
			l0.02,0.02c0.05,0.07,0.1,0.14,0.2,0.29c0.51-0.48,0.57-1.06,0.65-1.61c0.24-0.3,0.47-0.59,0.75-0.94
			c0.44-0.08,0.96-0.17,1.48-0.26c0.32,0.34,0.64,0.59,1.11,0.44c0.7-0.49,1.05-1.18,0.92-2.07c-0.13-0.87,0.28-1.61,0.5-2.4
			c0.45,0.08,0.86,0.16,1.21,0.22c0.69-0.68,0.68-0.68,1.01-1.58c0.14-0.36,0.33-0.71,0.56-1.21c0-0.13,0-0.44,0-0.77
			c-0.14-0.17-0.28-0.35-0.42-0.53c0-0.37,0-0.71,0-1.05c-0.25,0.1-0.5,0.2-0.75,0.3c-0.04-0.56-0.04-0.56,0.39-0.95
			c0.13,0.22,0.25,0.43,0.37,0.63c0.29,0.23,0.45,0.64,0.97,0.59c0-0.76,0-1.53,0-2.24c-0.28-0.67-0.55-1.3-0.83-1.96
			c0.23-0.39,0.45-0.75,0.66-1.09c0-0.26,0-0.49,0-0.71c-0.22-0.24-0.42-0.47-0.57-0.64c-0.14-0.58,0.38-0.61,0.58-0.88
			c-0.06-0.2-0.12-0.39-0.2-0.7c0.4,0.1,0.68,0.17,0.99,0.24c0.12-0.21,0.21-0.42,0.36-0.59c0.14-0.16,0.35-0.26,0.6-0.44
			c-0.31-0.47-0.6-0.89-0.87-1.3c0.07-0.14,0.12-0.26,0.21-0.43c-0.78-0.22-1-0.84-1.14-1.51c-0.13,0-0.23,0-0.33,0l-0.03-0.03
			c0.2-1.08,0.86-1.76,1.82-2.21c0.1,0.15,0.16,0.22,0.16,0.23c-0.12,0.36-0.22,0.67-0.32,0.98c-0.07,0.07-0.14,0.14-0.21,0.21
			c-0.14,0.03-0.28,0.06-0.57,0.13c0.75,0.64,1.46,1.02,2.24,1.29c0.19-0.11,0.39-0.22,0.58-0.32c0-0.4,0-0.77,0-1.15
			C239.99,234.73,239.29,233.92,239.37,232.76z"/>
		
			<linearGradient id="SVGID_1_" gradientUnits="userSpaceOnUse" x1="231.6835" y1="95.9037" x2="232.7492" y2="95.9037" gradientTransform="matrix(1 0 0 -1 0 366)">
			<stop  offset="0" style="stop-color:#FFFFFF"/>
			<stop  offset="0.2482" style="stop-color:#F6F5F3"/>
			<stop  offset="0.6903" style="stop-color:#DDDBD5"/>
			<stop  offset="0.995" style="stop-color:#C9C6BC"/>
		</linearGradient>
		<path class="st3" d="M232.11,269.81c-0.1-0.03-0.2-0.06-0.43-0.14c0.28,0.54,0.55,0.86,1.07,1.05c0-0.46,0-0.84,0-1.25
			c-0.19,0-0.31,0-0.46,0C232.23,269.58,232.17,269.69,232.11,269.81z"/>
		
			<linearGradient id="SVGID_2_" gradientUnits="userSpaceOnUse" x1="212.928" y1="270.0328" x2="214.7607" y2="270.0328" gradientTransform="matrix(1 0 0 -1 0 366)">
			<stop  offset="0" style="stop-color:#FFFFFF"/>
			<stop  offset="0.2482" style="stop-color:#F6F5F3"/>
			<stop  offset="0.6903" style="stop-color:#DDDBD5"/>
			<stop  offset="0.995" style="stop-color:#C9C6BC"/>
		</linearGradient>
		<path class="st4" d="M213.51,95.11c-0.25,0.36-0.43,0.63-0.59,0.86c0,0.28,0,0.51,0,0.82c0.79,0.16,1.25-0.32,1.83-0.62
			c-0.02-0.26-0.04-0.51-0.06-0.82c-0.36,0.16-0.63,0.28-0.86,0.39C213.72,95.5,213.63,95.33,213.51,95.11z"/>
		
			<linearGradient id="SVGID_3_" gradientUnits="userSpaceOnUse" x1="194.2445" y1="66.2927" x2="196.1135" y2="66.2927" gradientTransform="matrix(1 0 0 -1 0 366)">
			<stop  offset="0" style="stop-color:#FFFFFF"/>
			<stop  offset="0.2482" style="stop-color:#F6F5F3"/>
			<stop  offset="0.6903" style="stop-color:#DDDBD5"/>
			<stop  offset="0.995" style="stop-color:#C9C6BC"/>
		</linearGradient>
		<path class="st5" d="M194.33,300.6c0.55,0.09,0.87-0.35,1.33-0.47c-0.09-0.15-0.14-0.23-0.19-0.32l0.03-0.04
			c0.6-0.06,0.54-0.51,0.61-0.97c-0.36,0-0.65,0-0.88,0C194.49,299.21,194.04,299.72,194.33,300.6z"/>
		
			<linearGradient id="SVGID_4_" gradientUnits="userSpaceOnUse" x1="191.9417" y1="221.1337" x2="191.9805" y2="221.1337" gradientTransform="matrix(1 0 0 -1 0 366)">
			<stop  offset="0" style="stop-color:#FFFFFF"/>
			<stop  offset="0.2482" style="stop-color:#F6F5F3"/>
			<stop  offset="0.6903" style="stop-color:#DDDBD5"/>
			<stop  offset="0.995" style="stop-color:#C9C6BC"/>
		</linearGradient>
		<path class="st6" d="M191.95,144.86C191.94,144.86,191.94,144.86,191.95,144.86C191.94,144.86,191.94,144.86,191.95,144.86
			C191.95,144.86,191.95,144.87,191.95,144.86c0.02,0.01,0.02,0.01,0.03,0C191.96,144.86,191.96,144.86,191.95,144.86z"/>
		
			<linearGradient id="SVGID_5_" gradientUnits="userSpaceOnUse" x1="150.577" y1="90.949" x2="155.1081" y2="90.949" gradientTransform="matrix(1 0 0 -1 0 366)">
			<stop  offset="0" style="stop-color:#FFFFFF"/>
			<stop  offset="0.2482" style="stop-color:#F6F5F3"/>
			<stop  offset="0.6903" style="stop-color:#DDDBD5"/>
			<stop  offset="0.995" style="stop-color:#C9C6BC"/>
		</linearGradient>
		<path class="st7" d="M153.45,271.29c-0.85-0.03-0.76,1.08-1.53,1.24c-0.37-0.1-0.8-0.38-1.36-0.11c0.31,0.87,0.8,1.54,1.48,2.1
			c0.22,0.18,0.42,0.46,0.51,0.73c0.2,0.66,0.39,1.33,0.46,2.01c0.06,0.56,0.34,0.96,0.62,1.55c0.62-0.9,0.71-1.76,0.64-2.47
			c0.33-0.89,0.59-1.59,0.83-2.25C154.84,272.96,154.5,271.92,153.45,271.29z"/>
	</g>
</g>
</svg>
