<svg width="60px" x="0px" y="0px" viewBox="0 0 140.41 216.39" style="enable-background:new 0 0 140.41 216.39;"
    xml:space="preserve">
    <g>
        <g>
            <g>
                <path
                    d="M116.76,40.08l-4.32,14.57l18.43-7.69v106.41c0,9.5-5.06,18.28-13.29,23.04l-47.37,27.34l-47.38-27.34     c-8.23-4.75-13.29-13.53-13.29-23.04V46.96l50.61,21.13l2.92-11.55L0,30.21v127.88c0,11,5.87,21.15,15.39,26.65l54.82,31.65     l54.81-31.65c9.52-5.5,15.39-15.65,15.39-26.65V30.21L116.76,40.08z">
                </path>
            </g>
        </g>
        <g>
            <path d="M71.68,197.34l-36.02-19.88L72.31,40.47H42.42L121.66,0L71.68,197.34z"></path>
        </g>
    </g>
</svg>