<?xml version="1.0" encoding="utf-8"?>
<!-- Generator: Adobe Illustrator 24.1.2, SVG Export Plug-In . SVG Version: 6.00 Build 0)  -->
<svg version="1.1" id="Layer_1" xmlns="http://www.w3.org/2000/svg" xmlns:xlink="http://www.w3.org/1999/xlink" x="0px" y="0px"
	 viewBox="0 0 512 512" style="enable-background:new 0 0 512 512;" xml:space="preserve">
<path fill="#FFFFFF" d="M460,515.4H83.7C37.5,515.4,0,477.7,0,431.2V84.2C0,37.7,37.5,0,83.7,0h344.6C474.5,0,512,37.7,512,84.3v378.9
	C511.9,492,488.7,515.4,460,515.4z"/>
<g>
	
		<linearGradient id="SVGID_1_" gradientUnits="userSpaceOnUse" x1="350.1991" y1="413.1364" x2="192.5817" y2="162.8031" gradientTransform="matrix(1 0 0 -1 0 514)">
		<stop  offset="0" style="stop-color:#FF5B77"/>
		<stop  offset="0.3296" style="stop-color:#DA46B2"/>
		<stop  offset="0.6257" style="stop-color:#923BFF"/>
		<stop  offset="1" style="stop-color:#416FFF"/>
	</linearGradient>
	<path fill="url(#SVGID_1_)" d="M256.5,64.4c-108.2,0-192.1,79-192.1,185.9c0,55.8,22.9,104.1,60.3,137.5c6.5,5.8,5.1,9.2,6.2,45
		c0.3,8.5,7.5,15.2,15.9,14.8c1.9-0.1,3.8-0.5,5.6-1.3c40.9-18,41.4-19.5,48.3-17.6c118.4,32.6,246.8-43.2,246.8-178.5
		C447.6,143.4,364.6,64.4,256.5,64.4z"/>
	<path fill="#FFFFFF" d="M371.8,207.4l-56.4,89.3c-8.5,13.5-26.4,17.5-39.8,8.9c-0.6-0.4-1.2-0.8-1.8-1.3l-44.8-33.6
		c-4.1-3.1-9.8-3.1-13.9,0l-60.6,45.9c-8.1,6.1-18.6-3.5-13.2-12.1l56.4-89.3c8.5-13.5,26.4-17.5,39.8-8.9c0.6,0.4,1.3,0.8,1.8,1.3
		l44.8,33.6c4.1,3.1,9.8,3.1,13.9,0l60.6-45.8C366.6,189.2,377.1,198.9,371.8,207.4L371.8,207.4z"/>
</g>
<path fill="#FFFFFF" d="M-125.4,515.4h-376.3c-46.2,0-83.7-37.7-83.7-84.3V84.2c0-46.5,37.5-84.2,83.7-84.2h344.6
	c46.2,0,83.7,37.7,83.7,84.3v378.9C-73.5,492-96.7,515.4-125.4,515.4z"/>
<g>
	
		<linearGradient id="SVGID_2_" gradientUnits="userSpaceOnUse" x1="-235.1922" y1="413.1364" x2="-392.8096" y2="162.8031" gradientTransform="matrix(1 0 0 -1 0 514)">
		<stop  offset="0" style="stop-color:#FF5B77"/>
		<stop  offset="0.3296" style="stop-color:#DA46B2"/>
		<stop  offset="0.6257" style="stop-color:#923BFF"/>
		<stop  offset="1" style="stop-color:#416FFF"/>
	</linearGradient>
	<path fill="url(#SVGID_2_)" d="M-328.9,64.4c-108.2,0-192.1,79-192.1,185.9c0,55.8,22.9,104.1,60.3,137.5c6.5,5.8,5.1,9.2,6.2,45
		c0.3,8.5,7.5,15.2,15.9,14.8c1.9-0.1,3.8-0.5,5.6-1.3c40.9-18,41.4-19.5,48.3-17.6c118.4,32.6,246.8-43.2,246.8-178.5
		C-137.8,143.4-220.8,64.4-328.9,64.4z"/>
	<path fill="#FFFFFF" d="M-213.6,207.4l-56.4,89.3c-8.5,13.5-26.4,17.5-39.8,8.9c-0.6-0.4-1.2-0.8-1.8-1.3l-44.8-33.6
		c-4.1-3.1-9.8-3.1-13.9,0l-60.6,45.9c-8.1,6.1-18.6-3.5-13.2-12.1l56.4-89.3c8.5-13.5,26.4-17.5,39.8-8.9c0.6,0.4,1.3,0.8,1.8,1.3
		l44.8,33.6c4.1,3.1,9.8,3.1,13.9,0l60.6-45.8C-218.8,189.2-208.3,198.9-213.6,207.4L-213.6,207.4z"/>
</g>
</svg>
