<?xml version="1.0" encoding="utf-8"?>
<!-- Generator: Adobe Illustrator 24.1.2, SVG Export Plug-In . SVG Version: 6.00 Build 0)  -->
<svg version="1.1" id="Layer_1" xmlns="http://www.w3.org/2000/svg" xmlns:xlink="http://www.w3.org/1999/xlink" x="0px" y="0px"
	 viewBox="0 0 512 512" style="enable-background:new 0 0 512 512;" xml:space="preserve">
<style type="text/css">
	.st0{fill:#FFFFFF;}
	.st1{fill:url(#SVGID_1_);}
	.st2{fill:url(#SVGID_2_);}
</style>
<path fill="#FFFFFF" d="M-279.3,512h-250.4c-72.2,0-130.8-58.6-130.8-130.8V130.8C-660.5,58.6-602,0-529.7,0h250.4
	c72.2,0,130.8,58.6,130.8,130.8v250.4C-148.5,453.4-207.1,512-279.3,512z"/>
<g>
	
		<linearGradient id="SVGID_1_" gradientUnits="userSpaceOnUse" x1="-310.3227" y1="413.1364" x2="-467.94" y2="162.8031" gradientTransform="matrix(1 0 0 -1 0 514)">
		<stop  offset="0" style="stop-color:#FF5B77"/>
		<stop  offset="0.3296" style="stop-color:#DA46B2"/>
		<stop  offset="0.6257" style="stop-color:#923BFF"/>
		<stop  offset="1" style="stop-color:#416FFF"/>
	</linearGradient>
	<path fill="url(#SVGID_1_)" d="M-404.1,64.4c-108.2,0-192.1,79-192.1,185.9c0,55.8,22.9,104.1,60.3,137.5c6.5,5.8,5.1,9.2,6.2,45
		c0.3,8.5,7.5,15.2,15.9,14.8c1.9-0.1,3.8-0.5,5.6-1.3c40.9-18,41.4-19.5,48.3-17.6C-341.4,461.4-213,385.6-213,250.3
		C-212.9,143.4-295.9,64.4-404.1,64.4z"/>
	<path fill="#FFFFFF" d="M-288.8,207.4l-56.4,89.3c-8.5,13.5-26.4,17.5-39.8,8.9c-0.6-0.4-1.2-0.8-1.8-1.3l-44.8-33.6
		c-4.1-3.1-9.8-3.1-13.9,0l-60.6,45.9c-8.1,6.1-18.6-3.5-13.2-12.1l56.4-89.3c8.5-13.5,26.4-17.5,39.8-8.9c0.6,0.4,1.3,0.8,1.8,1.3
		l44.8,33.6c4.1,3.1,9.8,3.1,13.9,0l60.6-45.8C-293.9,189.2-283.4,198.9-288.8,207.4L-288.8,207.4z"/>
</g>
<path fill="#FFFFFF" d="M381.2,512H130.8C58.6,512,0,453.4,0,381.2V130.8C0,58.6,58.6,0,130.8,0h250.4C453.4,0,512,58.6,512,130.8
	v250.4C512,453.4,453.4,512,381.2,512z"/>
<g>
	
		<linearGradient id="SVGID_2_" gradientUnits="userSpaceOnUse" x1="350.1991" y1="413.1364" x2="192.5817" y2="162.8031" gradientTransform="matrix(1 0 0 -1 0 514)">
		<stop  offset="0" style="stop-color:#FF5B77"/>
		<stop  offset="0.3296" style="stop-color:#DA46B2"/>
		<stop  offset="0.6257" style="stop-color:#923BFF"/>
		<stop  offset="1" style="stop-color:#416FFF"/>
	</linearGradient>
	<path fill="url(#SVGID_2_)" d="M256.5,64.4c-108.2,0-192.1,79-192.1,185.9c0,55.8,22.9,104.1,60.3,137.5c6.5,5.8,5.1,9.2,6.2,45
		c0.3,8.5,7.5,15.2,15.9,14.8c1.9-0.1,3.8-0.5,5.6-1.3c40.9-18,41.4-19.5,48.3-17.6c118.4,32.6,246.8-43.2,246.8-178.5
		C447.6,143.4,364.6,64.4,256.5,64.4z"/>
	<path fill="#FFFFFF" d="M371.8,207.4l-56.4,89.3c-8.5,13.5-26.4,17.5-39.8,8.9c-0.6-0.4-1.2-0.8-1.8-1.3l-44.8-33.6
		c-4.1-3.1-9.8-3.1-13.9,0l-60.6,45.9c-8.1,6.1-18.6-3.5-13.2-12.1l56.4-89.3c8.5-13.5,26.4-17.5,39.8-8.9c0.6,0.4,1.3,0.8,1.8,1.3
		l44.8,33.6c4.1,3.1,9.8,3.1,13.9,0l60.6-45.8C366.6,189.2,377.1,198.9,371.8,207.4L371.8,207.4z"/>
</g>
</svg>
